<?xml version="1.0" encoding="UTF-8" standalone="no"?>
<svg xmlns:dc="http://purl.org/dc/elements/1.1/" xmlns:cc="http://creativecommons.org/ns#" xmlns:rdf="http://www.w3.org/1999/02/22-rdf-syntax-ns#" xmlns:svg="http://www.w3.org/2000/svg" xmlns="http://www.w3.org/2000/svg" viewBox="0 0 1765 666.90317" height="666.9032" width="1765" id="svg2" version="1.1">
  <metadata id="metadata8">
    <rdf:RDF>
      <cc:Work rdf:about="">
        <dc:format>image/svg+xml</dc:format>
        <dc:type rdf:resource="http://purl.org/dc/dcmitype/StillImage"/>
        <dc:title/>
      </cc:Work>
    </rdf:RDF>
  </metadata>
  <defs id="defs6"/>
  <rect y="0" x="0" height="666.9032" width="1765" id="rect2713" style="opacity:1;fill:#ffffff;fill-opacity:1;stroke:none;stroke-width:0.91100001;stroke-linecap:round;stroke-linejoin:bevel;stroke-miterlimit:4;stroke-dasharray:none;stroke-dashoffset:0;stroke-opacity:1;paint-order:normal"/>
  <g transform="matrix(0.97198431,0,0,1,0.5603138,0)" id="g2192">
    <path style="fill:#000000;stroke-width:0.31999999" d="m 711.84,605.30319 v -41.6 h 3.2 3.2 v 41.6 41.6 h -3.2 -3.2 z" id="path1710"/>
    <path style="fill:#000000;stroke-width:0.31999999" d="m 725.28,605.30319 v -41.6 h 3.2 3.2 v 41.6 41.6 h -3.2 -3.2 z" id="path1708"/>
    <path style="fill:#000000;stroke-width:0.31999999" d="m 747.36,605.30319 v -41.6 h 3.2 3.2 v 41.6 41.6 h -3.2 -3.2 z" id="path1706"/>
    <path style="fill:#000000;stroke-width:0.31999999" d="m 760.48,605.30319 v -41.6 h 3.36 3.36 v 41.6 41.6 h -3.36 -3.36 z" id="path1704"/>
    <path style="fill:#000000;stroke-width:0.31999999" d="m 773.92,587.70319 v -59.2 h 3.2 3.2 v 59.2 59.2 h -3.2 -3.2 z" id="path1702"/>
    <path style="fill:#000000;stroke-width:0.31999999" d="m 787.36,587.70319 v -59.2 h 3.2 3.2 v 59.2 59.2 h -3.2 -3.2 z" id="path1700"/>
    <path style="fill:#000000;stroke-width:0.31999999" d="m 809.12,587.70319 v -59.2 h 3.36 3.36 v 59.2 59.2 h -3.36 -3.36 z" id="path1698"/>
    <path style="fill:#000000;stroke-width:0.31999999" d="m 851.04,631.54319 v -15.36 h 3.2 3.2 v 15.36 15.36 h -3.2 -3.2 z" id="path1696"/>
    <path style="fill:#000000;stroke-width:0.31999999" d="m 864.48,631.54319 v -15.36 h 3.2 3.2 v 15.36 15.36 h -3.2 -3.2 z" id="path1694"/>
    <path style="fill:#000000;stroke-width:0.31999999" d="m 877.6,631.54319 v -15.36 h 3.36 3.36 v 15.36 15.36 h -3.36 -3.36 z" id="path1692"/>
    <path style="fill:#000000;stroke-width:0.31999999" d="m 899.68,631.54319 v -15.36 h 3.36 3.36 v 15.36 15.36 h -3.36 -3.36 z" id="path1690"/>
    <path style="fill:#000000;stroke-width:0.31999999" d="m 913.12,631.54319 v -15.36 h 3.2 3.2 v 15.36 15.36 h -3.2 -3.2 z" id="path1688"/>
    <path style="fill:#000000;stroke-width:0.31999999" d="m 926.56,631.54319 v -15.36 h 3.2 3.2 v 15.36 15.36 h -3.2 -3.2 z" id="path1686"/>
    <path style="fill:#000000;stroke-width:0.31999999" d="m 948.64,631.54319 v -15.36 h 3.2 3.2 v 15.36 15.36 h -3.2 -3.2 z" id="path1684"/>
    <path style="fill:#000000;stroke-width:0.31999999" d="m 990.24,622.90319 v -24 h 3.2 3.2 v 24 24 h -3.2 -3.2 z" id="path1682"/>
    <path style="fill:#000000;stroke-width:0.31999999" d="m 1003.68,622.90319 v -24 h 3.2 3.2 v 24 24 h -3.2 -3.2 z" id="path1680"/>
    <path style="fill:#000000;stroke-width:0.31999999" d="m 1016.8,622.90319 v -24 h 3.36 3.36 v 24 24 h -3.36 -3.36 z" id="path1678"/>
    <path style="fill:#000000;stroke-width:0.31999999" d="m 1030.24,622.90319 v -24 h 3.2 3.2 v 24 24 h -3.2 -3.2 z" id="path1676"/>
    <path style="fill:#000000;stroke-width:0.31999999" d="m 572.64,598.64137 v -47.9418 l 3.20102,-1.31891 3.20106,-1.31891 -0.0811,48.03763 -0.081,48.0376 -2.88,1.21299 -2.88,1.21296 -0.24,0.0102 -0.24,0.0102 v -47.94174 z" id="path1674"/>
    <path style="fill:#000000;stroke-width:0.31999999" d="m 1130.08,624.8286 v -21.44541 h 3.2 3.2 v 18.98742 18.98743 l -3.2,2.45801 -3.2,2.45799 z" id="path1672"/>
    <path style="fill:#000000;stroke-width:0.31999999" d="m 1231.12,643.47845 -3.12,-2.76291 v -18.66617 -18.66618 h 3.2 3.2 v 21.44 21.44 l -0.08,-0.0109 -0.08,-0.0109 z" id="path1670"/>
    <path style="fill:#000000;stroke-width:0.31999999" d="m 594.72,589.35682 v -47.9464 l 2.76582,-1.20125 2.7658,-1.20124 0.4342,-0.1666 0.43418,-0.16662 v 47.98854 47.98852 l -3.01098,1.32572 -3.01094,1.3257 H 594.90902 594.72 Z" id="path1668"/>
    <path style="fill:#000000;stroke-width:0.31999999" d="m 1143.2,587.27199 v -48.17078 l 3.28,-2.56813 3.28,-2.56816 0.092,47.74915 0.092,47.74912 -1.852,1.69834 -1.852,1.69833 -1.52,1.29146 -1.52,1.29145 z" id="path1666"/>
    <path style="fill:#000000;stroke-width:0.31999999" d="m 608.23898,583.82642 0.081,-48.02822 2.99709,-1.24749 2.99705,-1.24752 h 0.12295 0.12291 v 47.95734 47.95732 l -1.68,0.7086 -1.68,0.70861 -1.52102,0.60979 -1.52106,0.60983 z" id="path1664"/>
    <path style="fill:#000000;stroke-width:0.31999999" d="m 1052.32,587.70319 v -41.6 h 3.2 3.2 v 41.6 41.6 h -3.2 -3.2 z" id="path1662"/>
    <path style="fill:#000000;stroke-width:0.31999999" d="m 1065.76,587.70319 v -41.6 h 3.2 3.2 v 41.6 41.6 h -3.2 -3.2 z" id="path1660"/>
    <path style="fill:#000000;stroke-width:0.31999999" d="m 1087.84,587.70319 v -41.6 h 3.2 3.2 v 41.6 41.6 h -3.2 -3.2 z" id="path1658"/>
    <path style="fill:#000000;stroke-width:0.31999999" d="m 1208.72,624.80831 -3.12,-2.59478 V 574.3654 526.51727 l 2.2809,2.03296 2.281,2.03296 0.9274,0.8 0.9274,0.8 -0.088,47.60995 -0.088,47.60995 z" id="path1656"/>
    <path style="fill:#000000;stroke-width:0.31999999" d="m 621.28,578.14745 v -47.95578 l 3.20614,-1.32422 3.20615,-1.32426 H 627.84614 628 v 47.95574 47.95578 l -3.20614,1.32422 -3.20615,1.32426 H 621.43386 621.28 Z" id="path1654"/>
    <path style="fill:#000000;stroke-width:0.31999999" d="m 1156.64,575.2869 v -47.96777 l 3.2,-2.46448 3.2,-2.46448 v 47.8408 47.84076 l -3.2,2.59146 -3.2,2.59146 z" id="path1652"/>
    <path style="fill:#000000;stroke-width:0.31999999" d="m 634.79898,572.587 0.081,-48.0376 2.88,-1.21299 2.88,-1.21296 0.24,-0.0102 0.24,-0.0102 v 47.94182 47.94179 l -3.20102,1.31891 -3.20106,1.31892 0.0811,-48.03764 z" id="path1650"/>
    <path style="fill:#000000;stroke-width:0.31999999" d="m 648.16,566.98293 v -47.96336 l 3.20102,-1.31891 3.20106,-1.31891 -0.0811,48.02704 -0.081,48.02704 -2.56,1.07715 -2.56,1.07715 -0.56,0.17808 -0.56,0.17812 z" id="path1648"/>
    <path style="fill:#000000;stroke-width:0.31999999" d="m 1170.08,563.81001 v -47.64765 l 3.12,-2.58666 3.12,-2.58665 0.081,47.2934 0.081,47.29341 -1.841,1.7336 -1.8411,1.7336 -1.36,1.2073 -1.36,1.20729 z" id="path1646"/>
    <path style="fill:#000000;stroke-width:0.31999999" d="m 1186.64,607.43561 -3.12,-2.28791 v -48.41987 -48.41987 l 3.2,2.77094 3.2,2.77095 v 47.96668 47.96666 l -0.08,-0.0298 -0.08,-0.0298 -3.12,-2.28794 z" id="path1644"/>
    <path style="fill:#000000;stroke-width:0.31999999" d="m 669.99898,557.59388 0.081,-48.02077 2.19168,-0.93494 2.19165,-0.93498 h 1.08835 1.08832 v 47.5376 47.53763 l -1.84,0.81619 -1.84,0.8162 -1.52102,0.60195 -1.52106,0.60192 z" id="path1642"/>
    <path style="fill:#000000;stroke-width:0.31999999" d="m 851.04,561.30319 v -32.8 h 3.2 3.2 v 32.8 32.8 h -3.2 -3.2 z" id="path1640"/>
    <path style="fill:#000000;stroke-width:0.31999999" d="m 864.48,561.30319 v -32.8 h 3.2 3.2 v 32.8 32.8 h -3.2 -3.2 z" id="path1638"/>
    <path style="fill:#000000;stroke-width:0.31999999" d="m 877.6,561.30319 v -32.8 h 3.36 3.36 v 32.8 32.8 h -3.36 -3.36 z" id="path1636"/>
    <path style="fill:#000000;stroke-width:0.31999999" d="m 899.68,561.30319 v -32.8 h 3.36 3.36 v 32.8 32.8 h -3.36 -3.36 z" id="path1634"/>
    <path style="fill:#000000;stroke-width:0.31999999" d="m 913.12,561.30319 v -32.8 h 3.2 3.2 v 32.8 32.8 h -3.2 -3.2 z" id="path1632"/>
    <path style="fill:#000000;stroke-width:0.31999999" d="m 926.56,561.30319 v -32.8 h 3.2 3.2 v 32.8 32.8 h -3.2 -3.2 z" id="path1630"/>
    <path style="fill:#000000;stroke-width:0.31999999" d="m 948.64,561.30319 v -32.8 h 3.2 3.2 v 32.8 32.8 h -3.2 -3.2 z" id="path1628"/>
    <path style="fill:#000000;stroke-width:0.31999999" d="m 1130.08,565.66316 v -15.64 l 2.6211,-2.04 2.6211,-2.03997 0.5789,-0.41814 0.5789,-0.41815 v 18.09815 18.09814 h -3.2 -3.2 z" id="path1626"/>
    <path style="fill:#000000;stroke-width:0.31999999" d="M 1228,563.04505 V 544.7869 l 0.5804,0.41815 0.5805,0.41814 2.6195,2.23757 2.6196,2.23753 v 15.60247 15.60243 h -3.2 -3.2 z" id="path1624"/>
    <path style="fill:#000000;stroke-width:0.31999999" d="m 990.24,552.50319 v -24 h 3.2 3.2 v 24 24 h -3.2 -3.2 z" id="path1622"/>
    <path style="fill:#000000;stroke-width:0.31999999" d="m 1003.68,552.50319 v -24 h 3.2 3.2 v 24 24 h -3.2 -3.2 z" id="path1620"/>
    <path style="fill:#000000;stroke-width:0.31999999" d="m 1016.8,552.50319 v -24 h 3.36 3.36 v 24 24 h -3.36 -3.36 z" id="path1618"/>
    <path style="fill:#000000;stroke-width:0.31999999" d="m 1030.24,552.50319 v -24 h 3.2 3.2 v 24 24 h -3.2 -3.2 z" id="path1616"/>
    <path style="fill:#000000;stroke-width:0.31999999" d="m 244.16,484.18108 -0.32,-0.11159 -2.8,-0.37619 -2.8,-0.37622 v -69.08695 -69.08694 h 3.2 3.2 v 69.6 69.6 l -0.08,-0.0253 -0.08,-0.0253 -0.32,-0.11158 z" id="path1614"/>
    <path style="fill:#000000;stroke-width:0.31999999" d="m 251.36,460.34319 v -24 h 3.36 3.36 v 24 24 h -3.36 -3.36 z" id="path1612"/>
    <path style="fill:#000000;stroke-width:0.31999999" d="m 273.44,460.34319 v -24 h 3.36 3.36 v 24 24 h -3.36 -3.36 z" id="path1610"/>
    <path style="fill:#000000;stroke-width:0.31999999" d="m 295.52,460.34319 v -24 h 3.36 3.36 v 24 24 h -3.36 -3.36 z" id="path1608"/>
    <path style="fill:#000000;stroke-width:0.31999999" d="m 364,460.34319 v -24 h 3.2 3.2 v 24 24 h -3.2 -3.2 z" id="path1606"/>
    <path style="fill:#000000;stroke-width:0.31999999" d="m 386.08,460.34319 v -24 h 3.2 3.2 v 24 24 h -3.2 -3.2 z" id="path1604"/>
    <path style="fill:#000000;stroke-width:0.31999999" d="m 399.52,460.34319 v -24 h 3.2 3.2 v 24 24 h -3.2 -3.2 z" id="path1602"/>
    <path style="fill:#000000;stroke-width:0.31999999" d="m 412.64,418.78604 v -65.55715 l 2.32,-1.04506 2.32,-1.04506 1.04,-0.44208 1.04,-0.44208 v 67.04429 67.04429 H 416 412.64 Z" id="path1600"/>
    <path style="fill:#000000;stroke-width:0.31999999" d="m 426.15926,415.64837 0.0807,-68.69481 2.20864,-0.90519 2.20864,-0.90518 h 0.91136 0.91136 v 69.6 69.6 h -3.20074 -3.20073 z" id="path1598"/>
    <path style="fill:#000000;stroke-width:0.31999999" d="m 448.16,451.70319 v -32.64 h 3.2 3.2 v 32.64 32.64 h -3.2 -3.2 z" id="path1596"/>
    <path style="fill:#000000;stroke-width:0.31999999" d="m 461.6,451.70319 v -32.64 h 3.2 3.2 v 32.64 32.64 h -3.2 -3.2 z" id="path1594"/>
    <path style="fill:#000000;stroke-width:0.31999999" d="m 503.2,460.22034 v -24.12281 l 3.05882,-1.95719 3.05878,-1.95715 h 0.14122 0.14118 v 26.08 26.08 h -3.2 -3.2 z" id="path1592"/>
    <path style="fill:#000000;stroke-width:0.31999999" d="m 516.64,455.75455 v -28.58864 l 0.72,-0.34058 0.72,-0.34057 2.48,-1.14272 2.48,-1.14269 v 30.0719 30.07194 h -3.2 -3.2 z" id="path1590"/>
    <path style="fill:#000000;stroke-width:0.31999999" d="m 538.72,449.34889 v -34.99428 l 3.01098,-1.32572 3.01094,-1.3257 h 0.18906 0.18902 v 36.32 36.32 h -3.2 -3.2 z" id="path1588"/>
    <path style="fill:#000000;stroke-width:0.31999999" d="m 560.8,468.98319 v -15.36 h 3.2 3.2 v 15.36 15.36 h -3.2 -3.2 z" id="path1586"/>
    <path style="fill:#000000;stroke-width:0.31999999" d="m 573.92,468.98319 v -15.36 h 3.36 3.36 v 15.36 15.36 h -3.36 -3.36 z" id="path1584"/>
    <path style="fill:#000000;stroke-width:0.31999999" d="m 587.36,468.98319 v -15.36 h 3.2 3.2 v 15.36 15.36 h -3.2 -3.2 z" id="path1582"/>
    <path style="fill:#000000;stroke-width:0.31999999" d="m 600.8,468.98319 v -15.36 h 3.2 3.2 v 15.36 15.36 h -3.2 -3.2 z" id="path1580"/>
    <path style="fill:#000000;stroke-width:0.31999999" d="m 664.48,460.34319 v -24 h 3.2 3.2 v 24 24 h -3.2 -3.2 z" id="path1578"/>
    <path style="fill:#000000;stroke-width:0.31999999" d="m 677.92,464.66319 v -19.68 h 3.2 3.2 v 19.68 19.68 h -3.2 -3.2 z" id="path1576"/>
    <path style="fill:#000000;stroke-width:0.31999999" d="m 700,466.74319 v -17.6 h 3.2 3.2 v 17.6 17.6 h -3.2 -3.2 z" id="path1574"/>
    <path style="fill:#000000;stroke-width:0.31999999" d="m 713.12,466.74319 v -17.6 h 3.36 3.36 v 17.6 17.6 h -3.36 -3.36 z" id="path1572"/>
    <path style="fill:#000000;stroke-width:0.31999999" d="m 852.32,455.86319 v -28.48 h 3.36 3.36 v 28.48 28.48 h -3.36 -3.36 z" id="path1570"/>
    <path style="fill:#000000;stroke-width:0.31999999" d="m 865.76,455.86319 v -28.48 h 3.2 3.2 v 28.48 28.48 h -3.2 -3.2 z" id="path1568"/>
    <path style="fill:#000000;stroke-width:0.31999999" d="m 879.2,455.86319 v -28.48 h 3.2 3.2 v 28.48 28.48 h -3.2 -3.2 z" id="path1566"/>
    <path style="fill:#000000;stroke-width:0.31999999" d="m 920.8,468.98319 v -15.36 h 3.2 3.2 v 15.36 15.36 h -3.2 -3.2 z" id="path1564"/>
    <path style="fill:#000000;stroke-width:0.31999999" d="m 934.24,468.98319 v -15.36 h 3.2 3.2 v 15.36 15.36 h -3.2 -3.2 z" id="path1562"/>
    <path style="fill:#000000;stroke-width:0.31999999" d="m 947.36,468.98319 v -15.36 h 3.36 3.36 v 15.36 15.36 h -3.36 -3.36 z" id="path1560"/>
    <path style="fill:#000000;stroke-width:0.31999999" d="m 960.8,468.98319 v -15.36 h 3.2 3.2 v 15.36 15.36 h -3.2 -3.2 z" id="path1558"/>
    <path style="fill:#000000;stroke-width:0.31999999" d="m 982.88,468.98319 v -15.36 h 3.2 3.2 v 15.36 15.36 h -3.2 -3.2 z" id="path1556"/>
    <path style="fill:#000000;stroke-width:0.31999999" d="m 1004.96,440.34319 v -44 h 3.2 3.2 v 44 44 h -3.2 -3.2 z" id="path1554"/>
    <path style="fill:#000000;stroke-width:0.31999999" d="m 1086.56,468.98319 v -15.36 h 3.36 3.36 v 15.36 15.36 h -3.36 -3.36 z" id="path1552"/>
    <path style="fill:#000000;stroke-width:0.31999999" d="m 1108.64,468.98319 v -15.36 h 3.36 3.36 v 15.36 15.36 h -3.36 -3.36 z" id="path1550"/>
    <path style="fill:#000000;stroke-width:0.31999999" d="m 1122.08,468.98319 v -15.36 h 3.2 3.2 v 15.36 15.36 h -3.2 -3.2 z" id="path1548"/>
    <path style="fill:#000000;stroke-width:0.31999999" d="m 1144.16,442.74319 v -41.6 h 3.2 3.2 v 41.6 41.6 h -3.2 -3.2 z" id="path1546"/>
    <path style="fill:#000000;stroke-width:0.31999999" d="m 1199.2,466.90319 v -17.44 h 3.2 3.2 v 17.44 17.44 h -3.2 -3.2 z" id="path1544"/>
    <path style="fill:#000000;stroke-width:0.31999999" d="m 1356.16,483.8693 -1.92,-0.4096 -1.2,-0.21277 -1.2,-0.21273 v -31.18551 -31.1855 h 3.2 3.2 v 31.84 31.84 l -0.08,-0.0321 -0.08,-0.0321 z" id="path1542"/>
    <path style="fill:#000000;stroke-width:0.31999999" d="m 1373.92,468.98319 v -15.36 h 3.2 3.2 v 15.36 15.36 h -3.2 -3.2 z" id="path1540"/>
    <path style="fill:#000000;stroke-width:0.31999999" d="m 1387.04,468.98319 v -15.36 h 3.36 3.36 v 15.36 15.36 h -3.36 -3.36 z" id="path1538"/>
    <path style="fill:#000000;stroke-width:0.31999999" d="m 1400.48,468.98319 v -15.36 h 3.2 3.2 v 15.36 15.36 h -3.2 -3.2 z" id="path1536"/>
    <path style="fill:#000000;stroke-width:0.31999999" d="m 1422.56,452.45621 v -31.79302 h 3.2 3.2 v 31.15485 31.15488 l -3.2,0.63814 -3.2,0.63818 z" id="path1534"/>
    <path style="fill:#000000;stroke-width:0.31999999" d="m 1491.04,466.74319 v -17.6 h 3.2 3.2 v 17.6 17.6 h -3.2 -3.2 z" id="path1532"/>
    <path style="fill:#000000;stroke-width:0.31999999" d="m 1513.12,468.98319 v -15.36 h 3.2 3.2 v 15.36 15.36 h -3.2 -3.2 z" id="path1530"/>
    <path style="fill:#000000;stroke-width:0.31999999" d="m 1526.24,468.98319 v -15.36 h 3.36 3.36 v 15.36 15.36 h -3.36 -3.36 z" id="path1528"/>
    <path style="fill:#000000;stroke-width:0.31999999" d="m 1548.32,468.98319 v -15.36 h 3.36 3.36 v 15.36 15.36 h -3.36 -3.36 z" id="path1526"/>
    <path style="fill:#000000;stroke-width:0.31999999" d="m 1561.76,414.74319 v -69.6 h 3.2 3.2 v 69.6 69.6 h -3.2 -3.2 z" id="path1524"/>
    <path style="fill:#000000;stroke-width:0.31999999" d="m 308.96,414.58319 v -69.44 h 3.2 3.2 v 69.08109 69.08112 l -2.41306,0.35888 -2.41308,0.35891 H 309.74694 308.96 Z" id="path1522"/>
    <path style="fill:#000000;stroke-width:0.31999999" d="m 726.56,414.58319 v -69.44 h 3.2 3.2 v 69.44 69.44 h -3.2 -3.2 z" id="path1520"/>
    <path style="fill:#000000;stroke-width:0.31999999" d="m 1076.4,482.68716 -2.96,-1.31735 v -67.39619 -67.39616 l 2,-0.71718 2,-0.71722 1.2,7e-5 1.2,6e-5 v 69.44 69.44 l -0.24,-0.009 -0.24,-0.009 -2.96,-1.31734 z" id="path1518"/>
    <path style="fill:#000000;stroke-width:0.31999999" d="m 1221.28,459.5982 v -24.47552 l 3.0651,-3.38976 3.0651,-3.38973 h 0.1349 0.1349 l -0.013,24.56 -0.014,24.56 -3.1865,3.30528 -3.1865,3.30525 z" id="path1516"/>
    <path style="fill:#000000;stroke-width:0.31999999" d="m 227.92,476.86101 -3.12,-4.32576 v -58.09273 -58.09277 l 3.12,-4.33197 3.12,-4.33197 0.0815,33.26314 0.0815,33.26314 -0.0815,33.48736 -0.0815,33.48732 z" id="path1514"/>
    <path style="fill:#000000;stroke-width:0.31999999" d="m 322.4,414.42319 v -66.848 l 0.26496,0.304 0.26496,0.304 2.93504,4.07779 2.93504,4.07783 v 58.10627 58.1063 l -2.92266,4.05591 -2.92262,4.0559 -0.27738,0.304 -0.27734,0.304 z" id="path1512"/>
    <path style="fill:#000000;stroke-width:0.31999999" d="m 1436,453.9461 v -26.56291 h 3.2 3.2 v 24.95709 24.95709 l -3.2,1.60582 -3.2,1.60582 z" id="path1510"/>
    <path style="fill:#000000;stroke-width:0.31999999" d="m 1480.56,478.063 -2.96,-2.08954 v -13.41513 -13.41514 h 3.2 3.2 v 15.52 15.52 l -0.24,-0.0154 -0.24,-0.0154 -2.96,-2.0895 z" id="path1508"/>
    <path style="fill:#000000;stroke-width:0.31999999" d="m 740,450.12207 v -29.45888 h 3.2 3.2 v 27.1744 27.1744 l -2.8,2.04573 -2.8,2.04573 -0.4,0.23875 -0.4,0.23875 z" id="path1506"/>
    <path style="fill:#000000;stroke-width:0.31999999" d="m 1341.44,477.00783 -2.88,-1.86035 -0.082,-23.88215 -0.082,-23.88214 h 3.2021 3.202 v 25.76 25.76 l -0.24,-0.0176 -0.24,-0.0176 -2.88,-1.86035 z" id="path1504"/>
    <path style="fill:#000000;stroke-width:0.31999999" d="m 1157.6,442.53922 v -36.07577 l 0.88,0.80246 0.88,0.8025 2.32,2.02396 2.32,2.024 v 30.92756 30.92758 l -2.7705,2.06586 -2.7706,2.06582 -0.4294,0.2559 -0.4295,0.25591 z" id="path1502"/>
    <path style="fill:#000000;stroke-width:0.31999999" d="m 1575.2,412.65193 v -65.29127 l 0.56,0.32429 0.56,0.32429 2.56,1.86573 2.56,1.86572 0.081,61.27242 0.081,61.27242 -2.9969,1.82883 -2.9969,1.82883 h -0.2039 -0.2039 z" id="path1500"/>
    <path style="fill:#000000;stroke-width:0.31999999" d="m 645.52,474.23234 -3.12,-2.39389 v -17.90764 -17.90762 h 3.2 3.2 v 20.32 20.32 l -0.08,-0.0186 -0.08,-0.0186 -3.12,-2.39392 z" id="path1498"/>
    <path style="fill:#000000;stroke-width:0.31999999" d="m 1063.12,472.75932 -3.12,-2.52935 0.01,-58.46339 0.01,-58.46339 3.1134,-1.79786 3.1134,-1.79782 0.082,31.29235 0.082,31.29239 -0.082,31.4982 -0.082,31.49818 -3.12,-2.52931 z" id="path1496"/>
    <path style="fill:#000000;stroke-width:0.31999999" d="m 1018.4,440.07093 v -33.2055 l 0.4,0.23533 0.4,0.23536 2.8,1.92765 2.8,1.92764 v 28.02682 28.02682 l -1.68,1.59132 -1.68,1.59133 -1.52,1.42435 -1.52,1.42439 z" id="path1494"/>
    <path style="fill:#000000;stroke-width:0.31999999" d="m 1243.3648,440.82028 v -27.04291 l 2.7432,-3.35709 2.7432,-3.35709 0.4568,-0.46858 0.4568,-0.46857 -0.015,27.50857 -0.015,27.50858 -3.1798,3.36 -3.1798,3.36 v -27.04291 z" id="path1492"/>
    <path style="fill:#000000;stroke-width:0.31999999" d="m 781.67869,425.23861 0.0813,-37.34457 3.12,-1.83907 3.12,-1.83908 v 39.18365 39.18365 h -3.20131 -3.20135 z" id="path1490"/>
    <path style="fill:#000000;stroke-width:0.31999999" d="m 803.68285,419.14319 0.003,-43.44 3.01542,-1.84 3.01546,-1.84 h 0.18169 0.1817 v 45.28 45.28 h -3.2 -3.2 l 0.003,-43.44 z" id="path1488"/>
    <path style="fill:#000000;stroke-width:0.31999999" d="m 830.24,447.06319 v -15.2 h 3.36 3.36 v 15.2 15.2 h -3.36 -3.36 z" id="path1486"/>
    <path style="fill:#000000;stroke-width:0.31999999" d="m 1256.8116,427.20719 0.012,-26.864 3.1767,-3.36 3.1767,-3.36 0.012,26.50586 0.012,26.50588 -2.9366,3.41412 -2.9365,3.41414 -0.2635,0.304 -0.2634,0.304 0.012,-26.864 z" id="path1484"/>
    <path style="fill:#000000;stroke-width:0.31999999" d="m 1269.92,392.21516 v -47.07197 h 3.36 3.36 v 43.96054 43.96052 l -3.36,3.11142 -3.36,3.11142 z" id="path1482"/>
    <path style="fill:#000000;stroke-width:0.31999999" d="m 560.8,418.15103 v -16.23274 l 3.2,-1.32156 3.2,-1.32154 v 16.23581 16.23581 l -3.2,1.31846 -3.2,1.3185 z" id="path1480"/>
    <path style="fill:#000000;stroke-width:0.31999999" d="m 573.99709,411.6533 0.0829,-16.36989 3.28,-1.35248 3.28,-1.35248 v 16.40724 16.4072 l -3.12,1.3158 -3.12,1.31578 h -0.24291 -0.24291 l 0.0829,-16.36989 z" id="path1478"/>
    <path style="fill:#000000;stroke-width:0.31999999" d="m 700,414.26319 v -13.12 h 3.2 3.2 v 13.12 13.12 h -3.2 -3.2 z" id="path1476"/>
    <path style="fill:#000000;stroke-width:0.31999999" d="m 713.12,414.26319 v -13.12 h 3.36 3.36 v 13.12 13.12 h -3.36 -3.36 z" id="path1474"/>
    <path style="fill:#000000;stroke-width:0.31999999" d="m 1086.56,414.26319 v -13.12 h 3.36 3.36 v 13.12 13.12 h -3.36 -3.36 z" id="path1472"/>
    <path style="fill:#000000;stroke-width:0.31999999" d="m 1108.64,414.26319 v -13.12 h 3.36 3.36 v 13.12 13.12 h -3.36 -3.36 z" id="path1470"/>
    <path style="fill:#000000;stroke-width:0.31999999" d="m 1122.08,414.26319 v -13.12 h 3.2 3.2 v 13.12 13.12 h -3.2 -3.2 z" id="path1468"/>
    <path style="fill:#000000;stroke-width:0.31999999" d="m 1373.92,415.38319 v -12 h 3.2 3.2 v 12 12 h -3.2 -3.2 z" id="path1466"/>
    <path style="fill:#000000;stroke-width:0.31999999" d="m 1387.04,415.38319 v -12 h 3.36 3.36 v 12 12 h -3.36 -3.36 z" id="path1464"/>
    <path style="fill:#000000;stroke-width:0.31999999" d="m 1400.48,415.38319 v -12 h 3.2 3.2 v 12 12 h -3.2 -3.2 z" id="path1462"/>
    <path style="fill:#000000;stroke-width:0.31999999" d="m 1513.12,414.26319 v -13.12 h 3.2 3.2 v 13.12 13.12 h -3.2 -3.2 z" id="path1460"/>
    <path style="fill:#000000;stroke-width:0.31999999" d="m 1526.24,414.26319 v -13.12 h 3.36 3.36 v 13.12 13.12 h -3.36 -3.36 z" id="path1458"/>
    <path style="fill:#000000;stroke-width:0.31999999" d="m 1548.32,414.26319 v -13.12 h 3.36 3.36 v 13.12 13.12 h -3.36 -3.36 z" id="path1456"/>
    <path style="fill:#000000;stroke-width:0.31999999" d="m 1493.84,426.05125 -2.8,-0.9614 v -39.43488 -39.43492 l 1.7081,-0.53843 1.7082,-0.53843 h 1.4918 1.4919 v 40.96 40.96 l -0.4,-0.0253 -0.4,-0.0253 -2.8,-0.96141 z" id="path1454"/>
    <path style="fill:#000000;stroke-width:0.31999999" d="m 1283.36,385.85717 v -40.71398 h 3.2 3.2 v 37.52602 37.52598 l -3.2,3.188 -3.2,3.188 z" id="path1452"/>
    <path style="fill:#000000;stroke-width:0.31999999" d="m 920.8,384.02319 v -38.88 h 3.2 3.2 v 38.88 38.88 h -3.2 -3.2 z" id="path1450"/>
    <path style="fill:#000000;stroke-width:0.31999999" d="m 934.24,384.02319 v -38.88 h 3.2 3.2 v 38.88 38.88 h -3.2 -3.2 z" id="path1448"/>
    <path style="fill:#000000;stroke-width:0.31999999" d="m 947.36,409.62319 v -13.28 h 3.36 3.36 v 13.28 13.28 h -3.36 -3.36 z" id="path1446"/>
    <path style="fill:#000000;stroke-width:0.31999999" d="m 960.8,409.62319 v -13.28 h 3.2 3.2 v 13.28 13.28 h -3.2 -3.2 z" id="path1444"/>
    <path style="fill:#000000;stroke-width:0.31999999" d="m 982.88,409.62319 v -13.28 h 3.2 3.2 v 13.28 13.28 h -3.2 -3.2 z" id="path1442"/>
    <path style="fill:#000000;stroke-width:0.31999999" d="m 587.36,383.69429 v -37.92892 l 2.16,0.18524 2.16,0.18525 1.04,0.15815 1.04,0.15817 -0.0144,36.22551 -0.0144,36.2255 -2.9457,1.36781 -2.94572,1.36781 -0.24,-0.008 -0.24,-0.008 v -37.9289 z" id="path1440"/>
    <path style="fill:#000000;stroke-width:0.31999999" d="m 1480.56,419.48844 -2.96,-1.76451 v -31.76138 -31.76138 l 3.413,-2.34438 3.413,-2.34442 -0.2126,14.69543 -0.2126,14.69539 v 21.2 21.2 l -0.24,-0.0253 -0.24,-0.025 -2.96,-1.76451 z" id="path1438"/>
    <path style="fill:#000000;stroke-width:0.31999999" d="m 600.8,382.54428 v -33.94957 l 0.4769,0.18301 0.47692,0.18301 2.72464,0.83107 2.72464,0.83107 -0.0816,31.73014 -0.0815,31.73018 -1.44,0.53885 -1.44,0.53888 -1.68,0.66646 -1.68,0.66647 z" id="path1436"/>
    <path style="fill:#000000;stroke-width:0.31999999" d="m 817.12,389.38649 v -22.05994 l 3.2,-1.9608 3.2,-1.9608 v 22.16096 22.16096 l -2,1.15101 -2,1.15104 -1.2,0.70873 -1.2,0.70877 z" id="path1434"/>
    <path style="fill:#000000;stroke-width:0.31999999" d="m 1296.8,378.31279 v -33.1696 h 3.2 3.2 v 30.3544 30.3544 l -2.64,2.34614 -2.64,2.34612 -0.56,0.46908 -0.56,0.46906 z" id="path1432"/>
    <path style="fill:#000000;stroke-width:0.31999999" d="m 364,392.40783 v -17.36726 l 2.16,-1.072 2.16,-1.07197 1.04,-0.44099 1.04,-0.441 v 17.38052 17.38054 l -1.52,0.74774 -1.52,0.74778 -1.68,0.75197 -1.68,0.75197 z" id="path1430"/>
    <path style="fill:#000000;stroke-width:0.31999999" d="m 740,378.08162 v -29.46153 l 3.2,3.7231 3.2,3.7231 v 25.73847 25.73843 h -3.2 -3.2 z" id="path1428"/>
    <path style="fill:#000000;stroke-width:0.31999999" d="m 1422.56,376.34319 v -31.2 h 3.2 3.2 v 31.2 31.2 h -3.2 -3.2 z" id="path1426"/>
    <path style="fill:#000000;stroke-width:0.31999999" d="m 1351.84,376.18319 v -31.04 h 3.2 3.2 v 31.04 31.04 h -3.2 -3.2 z" id="path1424"/>
    <path style="fill:#000000;stroke-width:0.31999999" d="m 830.24413,381.86319 0.004,-21.84 2.44077,-1.6 2.44073,-1.6 0.91731,-0.59283 0.91735,-0.5928 -0.0822,22.16989 -0.0822,22.16985 -3.04,1.85287 -3.04,1.85283 -0.24,0.0102 -0.24,0.0102 0.004,-21.84 z" id="path1422"/>
    <path style="fill:#000000;stroke-width:0.31999999" d="m 1338.4781,375.02441 0.082,-25.79882 3.12,-1.38269 3.12,-1.38272 v 27.18151 27.1815 h -3.2019 -3.2019 z" id="path1420"/>
    <path style="fill:#000000;stroke-width:0.31999999" d="m 1436,374.26319 v -26.56 l 0.24,0.006 0.24,0.006 2.88,1.04022 2.88,1.04026 0.082,25.51373 0.082,25.51373 h -3.2019 -3.2019 v -26.56 z" id="path1418"/>
    <path style="fill:#000000;stroke-width:0.31999999" d="m 386.15728,382.36709 0.0827,-17.46153 3.12272,-1.38391 3.12272,-1.3839 -0.0827,17.46154 -0.0827,17.46153 -3.12272,1.38391 -3.12272,1.3839 z" id="path1416"/>
    <path style="fill:#000000;stroke-width:0.31999999" d="m 1199.2,370.74319 v -25.6 h 3.2 3.2 v 25.6 25.6 h -3.2 -3.2 z" id="path1414"/>
    <path style="fill:#000000;stroke-width:0.31999999" d="m 399.52,376.41557 v -17.42096 l 3.01098,-1.32572 3.01094,-1.3257 h 0.18906 0.18902 l -0.005,17.36 -0.005,17.36 -2.92826,1.28 -2.92822,1.28 -0.26691,0.10666 -0.26688,0.10668 v -17.42096 z" id="path1412"/>
    <path style="fill:#000000;stroke-width:0.31999999" d="m 251.36,368.66319 v -23.52 h 3.36 3.36 v 23.52 23.52 h -3.36 -3.36 z" id="path1410"/>
    <path style="fill:#000000;stroke-width:0.31999999" d="m 273.44,368.66319 v -23.52 h 3.36 3.36 v 23.52 23.52 h -3.36 -3.36 z" id="path1408"/>
    <path style="fill:#000000;stroke-width:0.31999999" d="m 295.52,368.66319 v -23.52 h 3.36 3.36 v 23.52 23.52 h -3.36 -3.36 z" id="path1406"/>
    <path style="fill:#000000;stroke-width:0.31999999" d="m 503.2,371.40959 v -20.77363 l 2.9608,-0.98637 2.96077,-0.9864 h 0.23923 0.2392 v 21.76 21.76 h -3.2 -3.2 z" id="path1404"/>
    <path style="fill:#000000;stroke-width:0.31999999" d="m 516.64,369.34607 v -22.83712 l 1.87286,-0.68288 1.87284,-0.68288 h 1.32716 1.32714 v 23.52 23.52 h -3.2 -3.2 z" id="path1402"/>
    <path style="fill:#000000;stroke-width:0.31999999" d="m 642.4,374.09013 v -18.09305 l 2.9264,-3.90695 2.9264,-3.90694 0.2736,-0.304 0.2736,-0.304 v 22.304 22.304 h -3.2 -3.2 z" id="path1400"/>
    <path style="fill:#000000;stroke-width:0.31999999" d="m 664.48,368.50319 v -23.36 h 3.2 3.2 v 23.36 23.36 h -3.2 -3.2 z" id="path1398"/>
    <path style="fill:#000000;stroke-width:0.31999999" d="m 852.32106,370.02319 v -21.84 l 2.65545,-1.52 2.65549,-1.52 h 0.70349 0.70349 l -0.003,21.36 -0.003,21.36 -3.1568,2 -3.1568,2 h -0.20007 -0.20006 v -21.84 z" id="path1396"/>
    <path style="fill:#000000;stroke-width:0.31999999" d="m 865.76,366.58319 v -21.44 h 3.2 3.2 v 21.44 21.44 h -3.2 -3.2 z" id="path1394"/>
    <path style="fill:#000000;stroke-width:0.31999999" d="m 879.2,366.58319 v -21.44 h 3.2 3.2 v 21.44 21.44 h -3.2 -3.2 z" id="path1392"/>
    <path style="fill:#000000;stroke-width:0.31999999" d="m 677.92,364.18319 v -19.04 h 3.2 3.2 v 19.04 19.04 h -3.2 -3.2 z" id="path1390"/>
    <path style="fill:#000000;stroke-width:0.31999999" d="m 700,362.10319 v -16.96 h 3.2 3.2 v 16.96 16.96 h -3.2 -3.2 z" id="path1388"/>
    <path style="fill:#000000;stroke-width:0.31999999" d="m 713.12,362.10319 v -16.96 h 3.36 3.36 v 16.96 16.96 h -3.36 -3.36 z" id="path1386"/>
    <path style="fill:#000000;stroke-width:0.31999999" d="m 1144.16,362.10319 v -16.96 h 3.2 3.2 v 16.96 16.96 h -3.2 -3.2 z" id="path1384"/>
    <path style="fill:#000000;stroke-width:0.31999999" d="m 1157.6,363.20092 v -15.86231 l 3.2,2.97207 3.2,2.97203 v 12.89024 12.89024 h -3.2 -3.2 z" id="path1382"/>
    <path style="fill:#000000;stroke-width:0.31999999" d="m 538.72,359.86319 v -14.72 h 3.2 3.2 v 14.72 14.72 h -3.2 -3.2 z" id="path1380"/>
    <path style="fill:#000000;stroke-width:0.31999999" d="m 560.8,359.86319 v -14.72 h 3.2 3.2 v 14.72 14.72 h -3.2 -3.2 z" id="path1378"/>
    <path style="fill:#000000;stroke-width:0.31999999" d="m 573.92,359.86319 v -14.72 h 3.36 3.36 v 14.72 14.72 h -3.36 -3.36 z" id="path1376"/>
    <path style="fill:#000000;stroke-width:0.31999999" d="m 947.36,359.86319 v -14.72 h 3.36 3.36 v 14.72 14.72 h -3.36 -3.36 z" id="path1374"/>
    <path style="fill:#000000;stroke-width:0.31999999" d="m 960.8,359.86319 v -14.72 h 3.2 3.2 v 14.72 14.72 h -3.2 -3.2 z" id="path1372"/>
    <path style="fill:#000000;stroke-width:0.31999999" d="m 982.88,359.86319 v -14.72 h 3.2 3.2 v 14.72 14.72 h -3.2 -3.2 z" id="path1370"/>
    <path style="fill:#000000;stroke-width:0.31999999" d="m 1004.96,359.86319 v -14.72 h 3.2 3.2 v 14.72 14.72 h -3.2 -3.2 z" id="path1368"/>
    <path style="fill:#000000;stroke-width:0.31999999" d="m 1018.4,359.86319 v -14.72 h 3.2 3.2 v 14.72 14.72 h -3.2 -3.2 z" id="path1366"/>
    <path style="fill:#000000;stroke-width:0.31999999" d="m 1086.56,359.86319 v -14.72 h 3.36 3.36 v 14.72 14.72 h -3.36 -3.36 z" id="path1364"/>
    <path style="fill:#000000;stroke-width:0.31999999" d="m 1108.64,359.86319 v -14.72 h 3.36 3.36 v 14.72 14.72 h -3.36 -3.36 z" id="path1362"/>
    <path style="fill:#000000;stroke-width:0.31999999" d="m 1122.08,359.86319 v -14.72 h 3.2 3.2 v 14.72 14.72 h -3.2 -3.2 z" id="path1360"/>
    <path style="fill:#000000;stroke-width:0.31999999" d="m 1221.28,359.86319 v -14.72 h 3.2 3.2 v 14.72 14.72 h -3.2 -3.2 z" id="path1358"/>
    <path style="fill:#000000;stroke-width:0.31999999" d="m 1243.36,359.86319 v -14.72 h 3.2 3.2 v 14.72 14.72 h -3.2 -3.2 z" id="path1356"/>
    <path style="fill:#000000;stroke-width:0.31999999" d="m 1256.8,359.86319 v -14.72 h 3.2 3.2 v 14.72 14.72 h -3.2 -3.2 z" id="path1354"/>
    <path style="fill:#000000;stroke-width:0.31999999" d="m 1373.92,359.86319 v -14.72 h 3.2 3.2 v 14.72 14.72 h -3.2 -3.2 z" id="path1352"/>
    <path style="fill:#000000;stroke-width:0.31999999" d="m 1387.04,359.86319 v -14.72 h 3.36 3.36 v 14.72 14.72 h -3.36 -3.36 z" id="path1350"/>
    <path style="fill:#000000;stroke-width:0.31999999" d="m 1400.48,359.86319 v -14.72 h 3.2 3.2 v 14.72 14.72 h -3.2 -3.2 z" id="path1348"/>
    <path style="fill:#000000;stroke-width:0.31999999" d="m 1513.12,359.86319 v -14.72 h 3.2 3.2 v 14.72 14.72 h -3.2 -3.2 z" id="path1346"/>
    <path style="fill:#000000;stroke-width:0.31999999" d="m 1526.24,359.86319 v -14.72 h 3.36 3.36 v 14.72 14.72 h -3.36 -3.36 z" id="path1344"/>
    <path style="fill:#000000;stroke-width:0.31999999" d="m 1548.32,359.86319 v -14.72 h 3.36 3.36 v 14.72 14.72 h -3.36 -3.36 z" id="path1342"/>
    <path style="fill:#000000;stroke-width:0.31999999" d="m 473.44,303.38319 v -18.72 h 3.2 3.2 v 18.72 18.72 h -3.2 -3.2 z" id="path1340"/>
    <path style="fill:#000000;stroke-width:0.31999999" d="m 20,252.18319 v -69.6 h 3.2 3.2 v 69.6 69.6 H 23.2 20 Z" id="path1338"/>
    <path style="fill:#000000;stroke-width:0.31999999" d="m 33.44,252.18319 v -69.6 h 3.2 3.2 v 69.6 69.6 h -3.2 -3.2 z" id="path1336"/>
    <path style="fill:#000000;stroke-width:0.31999999" d="m 95.52,252.18319 v -69.6 h 3.2 3.2 v 69.6 69.6 h -3.2 -3.2 z" id="path1334"/>
    <path style="fill:#000000;stroke-width:0.31999999" d="m 108.96,252.18319 v -69.6 h 3.2 3.2 v 69.6 69.6 h -3.2 -3.2 z" id="path1332"/>
    <path style="fill:#000000;stroke-width:0.31999999" d="m 195.04,302.38895 v -19.39424 l 0.42533,0.16323 0.42533,0.1632 2.77467,0.57671 2.77467,0.5767 v 18.6543 18.65434 h -3.2 -3.2 z" id="path1330"/>
    <path style="fill:#000000;stroke-width:0.31999999" d="m 208.16,303.22319 v -18.56 h 3.36 3.36 v 18.56 18.56 h -3.36 -3.36 z" id="path1328"/>
    <path style="fill:#000000;stroke-width:0.31999999" d="m 290.08,252.18319 v -69.6 h 3.2 3.2 v 69.6 69.6 h -3.2 -3.2 z" id="path1326"/>
    <path style="fill:#000000;stroke-width:0.31999999" d="m 303.2,252.18319 v -69.6 h 3.2 3.2 v 69.6 69.6 h -3.2 -3.2 z" id="path1324"/>
    <path style="fill:#000000;stroke-width:0.31999999" d="m 538.64,319.70005 -3.12,-2.0864 v -32.4519 -32.4519 l 3.06966,1.78777 3.06967,1.78781 0.1328,0.34886 0.1328,0.3489 -0.0825,32.40166 -0.0825,32.40164 z" id="path1322"/>
    <path style="fill:#000000;stroke-width:0.31999999" d="m 568.48,252.18319 v -69.6 h 3.2 3.2 v 69.6 69.6 h -3.2 -3.2 z" id="path1320"/>
    <path style="fill:#000000;stroke-width:0.31999999" d="m 581.6,252.18319 v -69.6 h 3.2 3.2 v 69.6 69.6 h -3.2 -3.2 z" id="path1318"/>
    <path style="fill:#000000;stroke-width:0.31999999" d="m 882.08,252.18319 v -69.6 h 3.2 3.2 v 69.6 69.6 h -3.2 -3.2 z" id="path1316"/>
    <path style="fill:#000000;stroke-width:0.31999999" d="m 895.2,252.18319 v -69.6 h 3.36 3.36 v 69.6 69.6 h -3.36 -3.36 z" id="path1314"/>
    <path style="fill:#000000;stroke-width:0.31999999" d="m 908.64,252.18319 v -69.6 h 3.2 3.2 v 69.6 69.6 h -3.2 -3.2 z" id="path1312"/>
    <path style="fill:#000000;stroke-width:0.31999999" d="m 1043.36,288.98319 v -32.8 h 3.36 3.36 v 32.8 32.8 h -3.36 -3.36 z" id="path1310"/>
    <path style="fill:#000000;stroke-width:0.31999999" d="m 1351.76,317.91122 -3.12,-3.74541 v -36.74937 -36.74935 l 3.2013,3.20135 3.2014,3.20131 -0.081,37.29344 -0.081,37.29344 z" id="path1308"/>
    <path style="fill:#000000;stroke-width:0.31999999" d="m 1403.7076,302.02319 0.028,-19.76 2.9844,-2.64 2.9845,-2.64 h 0.1879 0.1879 v 22.4 22.4 h -3.2 -3.2 l 0.027,-19.76 z" id="path1306"/>
    <path style="fill:#000000;stroke-width:0.31999999" d="m 1496.48,291.70319 v -30.08 h 0.098 0.098 l 3.1018,3.49898 3.1018,3.49894 v 26.58106 26.58102 h -3.2 -3.2 z" id="path1304"/>
    <path style="fill:#000000;stroke-width:0.31999999" d="m 1509.92,299.47209 v -22.31111 l 0.6109,0.63111 0.6109,0.6311 2.5875,3.04 2.5876,3.04 v 18.64 18.64 h -3.2 -3.2 v -22.3111 z" id="path1302"/>
    <path style="fill:#000000;stroke-width:0.31999999" d="m 1578.08,263.80741 v -57.97577 l 0.72,0.63302 0.72,0.63306 2.4,2.06237 2.4,2.0624 0.2351,0.32035 0.2351,0.32035 v 54.96 54.96 h -3.36 -3.36 v -57.97578 z" id="path1300"/>
    <path style="fill:#000000;stroke-width:0.31999999" d="m 1600.1664,271.94319 0.01,-49.84 3.1721,-2.8 3.1721,-2.8 h 0.1815 0.1815 v 52.64 52.64 h -3.36 -3.36 l 0.01,-49.84 z" id="path1298"/>
    <path style="fill:#000000;stroke-width:0.31999999" d="M 1613.6,266.17669 V 210.5702 l 3.2,-2.46829 3.2,-2.46829 v 58.07479 58.07478 h -3.2 -3.2 z" id="path1296"/>
    <path style="fill:#000000;stroke-width:0.31999999" d="M 1682.08,299.87145 V 277.9597 l 2.8,-1.87104 2.8,-1.87104 0.4,-0.23609 0.4,-0.2361 v 24.01888 24.01888 h -3.2 -3.2 z" id="path1294"/>
    <path style="fill:#000000;stroke-width:0.31999999" d="m 1695.205,294.98319 0.01,-26.8 2.9193,-1.92 2.9193,-1.92 0.2757,-0.10666 0.2757,-0.10668 v 28.82668 28.82666 h -3.2 -3.2 l 0.01,-26.8 z" id="path1292"/>
    <path style="fill:#000000;stroke-width:0.31999999" d="m 1708.64,290.2758 v -31.50743 l 2.32,-1.7142 2.32,-1.71418 0.88,-0.5752 0.88,-0.5752 v 33.7968 33.7968 h -3.2 -3.2 z" id="path1290"/>
    <path style="fill:#000000;stroke-width:0.31999999" d="m 1730.7293,282.34319 0.01,-39.44 1.9695,-1.44 1.9695,-1.44 1.2212,-0.90768 1.2211,-0.90768 v 41.78768 41.78768 h -3.2 -3.2 l 0.01,-39.44 z" id="path1288"/>
    <path style="fill:#000000;stroke-width:0.31999999" d="m 1752.8,305.30319 v -16.48 h 3.2 3.2 v 16.48 16.48 h -3.2 -3.2 z" id="path1286"/>
    <path style="fill:#000000;stroke-width:0.31999999" d="m 1766.24,305.30319 v -16.48 h 3.2 3.2 v 16.48 16.48 h -3.2 -3.2 z" id="path1284"/>
    <path style="fill:#000000;stroke-width:0.31999999" d="m 1788.32,297.78319 v -24 h 3.2 3.2 v 24 24 h -3.2 -3.2 z" id="path1282"/>
    <path style="fill:#000000;stroke-width:0.31999999" d="m 221.3574,303.02191 0.0826,-18.44128 3.1836,-1.23872 3.1836,-1.23872 H 227.9036 228 v 18.50618 18.5062 l -3.12,1.17741 -3.12,1.17744 -0.2426,-0.004 -0.2426,-0.004 0.0826,-18.44128 z" id="path1280"/>
    <path style="fill:#000000;stroke-width:0.31999999" d="m 677.84,319.00357 -3.12,-2.4279 v -16.78941 -16.78937 l 1.2,1.04601 1.2,1.04602 2.00291,1.82739 2.00295,1.82742 -0.0829,16.34388 -0.0829,16.34387 z" id="path1278"/>
    <path style="fill:#000000;stroke-width:0.31999999" d="m 742.88,307.22319 v -14.24 h 1.23306 1.23305 l 1.96695,0.2056 1.96694,0.20557 v 14.03443 14.0344 h -3.2 -3.2 z" id="path1276"/>
    <path style="fill:#000000;stroke-width:0.31999999" d="M 756.32,307.58709 V 293.711 l 2.48,-0.38919 2.48,-0.38915 0.72,-0.16944 0.72,-0.16941 v 14.43469 14.43469 h -3.2 -3.2 z" id="path1274"/>
    <path style="fill:#000000;stroke-width:0.31999999" d="m 1182.56,279.85119 v -41.44 l 3.2,-3.188 3.2,-3.188 v 41.44 41.44 l -3.2,3.188 -3.2,3.188 z" id="path1272"/>
    <path style="fill:#000000;stroke-width:0.31999999" d="m 1286.56,283.89093 v -37.36976 l 2.7708,-3.40899 2.7708,-3.40899 0.4292,-0.46858 0.4292,-0.46857 v 36.63385 36.63389 l -3.2,4.61347 -3.2,4.61348 z" id="path1270"/>
    <path style="fill:#000000;stroke-width:0.31999999" d="m 1425.7904,292.02319 v -29.28 l 3.1836,-3.36 3.1838,-3.36 2e-4,29.08451 3e-4,29.08451 -1.7345,1.95549 -1.7346,1.95549 -1.4511,1.6 -1.4511,1.6 v -29.28 z" id="path1268"/>
    <path style="fill:#000000;stroke-width:0.31999999" d="m 778.15667,306.66319 0.0833,-14.16 3.28,-0.68022 3.28,-0.68023 v 14.35411 14.35415 l -0.72,0.1576 -0.72,0.15757 -1.89878,0.32851 -1.89876,0.32851 h -0.74457 -0.74455 z" id="path1266"/>
    <path style="fill:#000000;stroke-width:0.31999999" d="m 495.52,299.05183 v -20.78864 h 3.2 3.2 v 19.3776 19.37763 l -1.84,0.82093 -1.84,0.82093 -1.36,0.59008 -1.36,0.59008 z" id="path1264"/>
    <path style="fill:#000000;stroke-width:0.31999999" d="m 184.72059,316.25708 -3.11942,-1.99389 -6.4e-4,-17.68 -5.3e-4,-17.68 h 0.27162 0.27162 l 3.00838,1.25958 3.00838,1.25956 0.0826,18.42044 0.0826,18.42042 -0.2426,-0.006 -0.2426,-0.006 -3.11941,-1.99389 z" id="path1262"/>
    <path style="fill:#000000;stroke-width:0.31999999" d="m 723.84,317.17148 -2.88,-1.05719 -0.0832,-14.74585 -0.0832,-14.74583 3.19507,1.50029 3.19508,1.50029 0.008,14.32 0.008,14.32 -0.24,-0.0173 -0.24,-0.0173 -2.88,-1.05715 z" id="path1260"/>
    <path style="fill:#000000;stroke-width:0.31999999" d="m 791.84,283.24261 v -34.97516 l 3.20064,1.15788 3.20061,1.15786 -0.0806,32.7713 -0.0806,32.77129 -3.12,1.04599 -3.12,1.04601 z" id="path1258"/>
    <path style="fill:#000000;stroke-width:0.31999999" d="m 1033.2,316.42524 -2.96,-1.8225 v -29.20979 -29.20976 h 3.2 3.2 v 31.04 31.04 l -0.24,-0.008 -0.24,-0.008 -2.96,-1.8225 z" id="path1256"/>
    <path style="fill:#000000;stroke-width:0.31999999" d="m 1065.44,284.85074 v -33.14755 h 3.36 3.36 v 30.50643 30.50647 l -1.2,0.94326 -1.2,0.94326 -2.16,1.69783 -2.16,1.69785 z" id="path1254"/>
    <path style="fill:#000000;stroke-width:0.31999999" d="m 451.36758,253.70319 0.008,-63.6 3.06356,-2.02224 3.06352,-2.02221 0.15635,0.15632 0.15632,0.15635 -0.23549,65.46589 -0.23584,65.46589 h -2.99194 -2.99193 l 0.008,-63.6 z" id="path1252"/>
    <path style="fill:#000000;stroke-width:0.31999999" d="m 235.04166,298.19141 0.002,-18.48822 2.99548,-1.84 2.99548,-1.84 h 0.20546 0.20546 l -0.0826,18.45456 -0.0826,18.45456 -2.24,1.39261 -2.24,1.39261 -0.88,0.48105 -0.88,0.48106 0.002,-18.48823 z" id="path1250"/>
    <path style="fill:#000000;stroke-width:0.31999999" d="m 1172.24,311.94351 -3.12,-3.13178 v -41.43232 -41.43232 l 3.2012,3.20122 3.2012,3.20122 -0.081,41.36288 -0.081,41.36288 z" id="path1248"/>
    <path style="fill:#000000;stroke-width:0.31999999" d="m 508.96,251.06319 v -63.68 h 0.15578 0.15577 l 3.04503,1.51264 3.04505,1.51261 -0.0808,60.94429 -0.0808,60.94425 -2.88,1.21299 -2.88,1.21296 -0.24,0.0102 -0.24,0.0102 v -63.68 z" id="path1246"/>
    <path style="fill:#000000;stroke-width:0.31999999" d="m 525.12,313.17881 -2.88,-1.21332 -0.0815,-33.65116 -0.0815,-33.65114 0.24147,0.0176 0.24147,0.0176 2.88,1.86035 2.88,1.86039 0.0815,33.00214 0.0815,33.00211 -0.24148,-0.0157 -0.2415,-0.0154 -2.88,-1.21334 z" id="path1244"/>
    <path style="fill:#000000;stroke-width:0.31999999" d="m 710.64,311.47759 -2.96,-1.65011 v -14.37639 -14.37638 l 0.56,0.2135 0.56,0.21351 2.64,1.4375 2.64,1.43747 v 14.38327 14.38323 l -0.24,-0.008 -0.24,-0.008 -2.96,-1.65011 z" id="path1242"/>
    <path style="fill:#000000;stroke-width:0.31999999" d="m 813.92,282.09525 v -30.07206 h 0.15578 0.15577 l 3.04423,1.51222 3.04422,1.51223 v 27.14598 27.14599 l -2.48,1.13529 -2.48,1.13527 -0.72,0.27859 -0.72,0.27859 z" id="path1240"/>
    <path style="fill:#000000;stroke-width:0.31999999" d="m 664.4,309.12079 -3.12,-2.41619 v -17.59722 -17.59721 l 3.2,2.46448 3.2,2.46448 v 17.55203 17.55203 l -0.08,-0.003 -0.08,-0.003 -3.12,-2.41622 z" id="path1238"/>
    <path style="fill:#000000;stroke-width:0.31999999" d="m 1078.88,245.97615 v -63.39296 h 3.2 3.2 v 60.6168 60.6168 l -0.9267,0.7432 -0.9267,0.7432 -2.2733,2.03296 -2.2733,2.03296 z" id="path1236"/>
    <path style="fill:#000000;stroke-width:0.31999999" d="M 162.91924,304.81506 159.84,301.60693 v -47.27788 -47.27786 l 3.2,-3.188 3.2,-3.188 v 53.67402 53.67398 h -0.12076 -0.12077 z" id="path1234"/>
    <path style="fill:#000000;stroke-width:0.31999999" d="m 432.40781,305.05279 -3.11219,-2.6296 -0.008,-50.6079 -0.008,-50.60791 3.12,-2.24851 3.12,-2.24851 0.0818,27.84173 0.0818,27.84176 -0.0818,27.64425 -0.0818,27.64429 -3.1122,-2.6296 z" id="path1232"/>
    <path style="fill:#000000;stroke-width:0.31999999" d="m 1195.7011,266.42319 -0.01,-41.44 3.274,-3.63046 3.2741,-3.63047 0.081,41.35456 0.081,41.35453 -1.4158,1.63594 -1.4159,1.6359 -1.9303,2.08 -1.9302,2.08 -0.01,-41.44 z" id="path1230"/>
    <path style="fill:#000000;stroke-width:0.31999999" d="m 248.48,254.40217 v -53.01735 l 0.56,0.43447 0.56,0.43446 2.64,2.36403 2.64,2.36407 -6.4e-4,47.72067 -6.4e-4,47.72067 -2.61823,2.08 -2.61824,2.08 -0.58109,0.41814 -0.58108,0.41815 v -53.01731 z" id="path1228"/>
    <path style="fill:#000000;stroke-width:0.31999999" d="m 1011.2843,305.34953 -3.1157,-1.64634 v -60.56 -60.56 h 3.2 3.2 v 62.24 62.24 l -0.08,-0.0337 -0.08,-0.0336 z" id="path1226"/>
    <path style="fill:#000000;stroke-width:0.31999999" d="m 1477.527,300.95797 -3.113,-3.33478 -0.01,-45.31296 -0.01,-45.31299 3.12,-3.00701 3.12,-3.00704 0.082,25.84 0.082,25.84 -0.082,25.81478 -0.082,25.81479 -3.113,-3.33479 z" id="path1224"/>
    <path style="fill:#000000;stroke-width:0.31999999" d="m 1337.9987,298.26556 -3.1214,-4.87888 0.081,-37.3161 0.081,-37.31609 3.1345,2.95436 3.1345,2.95434 -0.095,39.24064 -0.094,39.24061 z" id="path1222"/>
    <path style="fill:#000000;stroke-width:0.31999999" d="m 1299.68,265.07161 v -36.99959 l 3.12,-3.84381 3.12,-3.84377 0.24,-0.0205 0.24,-0.0205 v 36.03309 36.03308 l -3.0784,4.52692 -3.0784,4.52691 -0.2816,0.304 -0.2816,0.304 v -36.99955 z" id="path1220"/>
    <path style="fill:#000000;stroke-width:0.31999999" d="M 650.95437,297.75602 647.84,295.48885 v -17.43171 -17.43171 l 0.4,0.24074 0.4,0.24073 2.96,2.37309 2.96,2.37306 v 17.08508 17.08506 h -0.24563 -0.2456 z" id="path1218"/>
    <path style="fill:#000000;stroke-width:0.31999999" d="m 1447.84,252.37474 v -47.71437 l 3.1947,3.44141 3.1946,3.44141 0.01,41.4968 0.01,41.4968 -0.9267,0.7432 -0.9267,0.7432 -2.2733,2.03296 -2.2733,2.03296 v -47.71437 z" id="path1216"/>
    <path style="fill:#000000;stroke-width:0.31999999" d="m 1092.32,241.15487 v -58.57168 h 3.2 3.2 v 56.14832 56.14829 l -3.2,2.42339 -3.2,2.42339 z" id="path1214"/>
    <path style="fill:#000000;stroke-width:0.31999999" d="m 990.56,295.26121 -1.44,-0.56708 -1.52,-0.56195 -1.52,-0.56192 v -55.49353 -55.49354 h 3.2 3.2 v 56.64 56.64 l -0.24,-0.0173 -0.24,-0.0176 -1.44,-0.56707 z" id="path1212"/>
    <path style="fill:#000000;stroke-width:0.31999999" d="m 1209.1203,252.49717 -3e-4,-41.60598 3.2,-3.188 3.2,-3.188 -0.016,41.43402 -0.016,41.43398 -3.1837,3.36 -3.1837,3.36 -2e-4,-41.60602 z" id="path1210"/>
    <path style="fill:#000000;stroke-width:0.31999999" d="m 1150.087,289.86319 -2.9722,-2.8 -0.037,-41.54419 -0.037,-41.54423 3.2,2.96 3.2,2.96 v 41.38423 41.38419 h -0.1904 -0.1904 z" id="path1208"/>
    <path style="fill:#000000;stroke-width:0.31999999" d="m 1460.96,254.64287 v -34.50035 l 3.3441,-3.49965 3.3442,-3.49968 0.016,38 0.016,38 h -3.36 -3.36 v -34.50032 z" id="path1206"/>
    <path style="fill:#000000;stroke-width:0.31999999" d="m 85.36,285.90325 -3.28,-2.88745 v -32.61629 -32.61632 h 0.180342 0.180343 l 3.179657,2.75334 3.179658,2.75332 v 32.76668 32.76666 l -0.08,-0.0163 -0.08,-0.0163 -3.28,-2.88749 z" id="path1204"/>
    <path style="fill:#000000;stroke-width:0.31999999" d="m 1370.72,235.72207 v -53.13888 h 3.2 3.2 v 51.32022 51.32023 l -2.96,1.68966 -2.96,1.68967 -0.24,0.12899 -0.24,0.12899 z" id="path1202"/>
    <path style="fill:#000000;stroke-width:0.31999999" d="m 1267.6,286.67935 -3.12,-1.75594 V 233.7533 182.58319 h 3.2 3.2 v 52.96 52.96 l -0.08,-0.0339 -0.08,-0.034 z" id="path1200"/>
    <path style="fill:#000000;stroke-width:0.31999999" d="m 1313.1226,247.36156 v -36.77837 l 3.1174,-3.91203 3.1175,-3.91203 0.081,35.65897 0.081,35.65898 -3.2014,5.03142 -3.2013,5.03143 v -36.77837 z" id="path1198"/>
    <path style="fill:#000000;stroke-width:0.31999999" d="m 629.04,280.6318 -3.28,-2.73952 v -15.33453 -15.33456 h 3.36 3.36 v 18.08 18.08 l -0.08,-0.006 -0.08,-0.006 -3.28,-2.73952 z" id="path1196"/>
    <path style="fill:#000000;stroke-width:0.31999999" d="m 72.08,275.41615 -3.12,-3.00701 V 239.5781 206.74709 l 3.201526,3.20154 3.201527,3.2015 -0.08153,32.63655 L 75.2,278.42319 Z" id="path1194"/>
    <path style="fill:#000000;stroke-width:0.31999999" d="m 603.68,262.58319 v -15.36 h 3.36 3.36 v 15.36 15.36 h -3.36 -3.36 z" id="path1192"/>
    <path style="fill:#000000;stroke-width:0.31999999" d="m 325.28,258.10319 v -15.36 h 3.36 3.36 v 15.36 15.36 h -3.36 -3.36 z" id="path1190"/>
    <path style="fill:#000000;stroke-width:0.31999999" d="m 338.72,258.10319 v -15.36 h 3.2 3.2 v 15.36 15.36 h -3.2 -3.2 z" id="path1188"/>
    <path style="fill:#000000;stroke-width:0.31999999" d="m 360.8,258.10319 v -15.36 h 3.2 3.2 v 15.36 15.36 h -3.2 -3.2 z" id="path1186"/>
    <path style="fill:#000000;stroke-width:0.31999999" d="m 1627.0555,236.61007 0.016,-36.58688 3.1044,-2.7753 3.1045,-2.77526 0.092,36.53526 0.091,36.5353 -2.0115,1.85219 -2.0116,1.85216 -1.2,0.97472 -1.2,0.97472 0.015,-36.58691 z" id="path1184"/>
    <path style="fill:#000000;stroke-width:0.31999999" d="m 382.88,228.34319 v -44.48 h 0.2392 0.23923 l 2.96077,0.9864 2.9608,0.98637 v 42.67206 42.67203 l -0.56,0.16791 -0.56,0.1679 -2.39357,0.65367 -2.39357,0.65366 H 383.12643 382.88 Z" id="path1182"/>
    <path style="fill:#000000;stroke-width:0.31999999" d="m 781.52074,270.13788 -3.11927,-1.63469 v -12.88291 -12.88291 l 3.2,1.60582 3.2,1.60582 v 12.95709 12.95709 l -0.08,-0.0453 -0.08,-0.0453 -3.11926,-1.63469 z" id="path1180"/>
    <path style="fill:#000000;stroke-width:0.31999999" d="m 1128.0395,268.21769 -3.0795,-3.32548 v -41.15452 -41.1545 h 0.294 0.294 l 2.906,3.1168 2.906,3.11683 v 41.36317 41.3632 h -0.1205 -0.1206 z" id="path1178"/>
    <path style="fill:#000000;stroke-width:0.31999999" d="M 1231.2,229.54962 V 188.139 l 2.8388,-2.77789 2.8388,-2.77792 h 0.3612 0.3612 v 41.23571 41.23571 l -3.2,2.9528 -3.2,2.9528 z" id="path1176"/>
    <path style="fill:#000000;stroke-width:0.31999999" d="m 396.32,227.06725 v -37.15929 l 3.2,2.77094 3.2,2.77095 -0.003,32.68668 -0.003,32.68666 -3.1983,1.7017 -3.19831,1.70169 v -37.15933 z" id="path1174"/>
    <path style="fill:#000000;stroke-width:0.31999999" d="m 759.28,261.88783 -2.96,-1.57008 v -12.7873 -12.78726 h 0.14118 0.14122 l 3.05878,1.95715 3.05882,1.95719 v 12.44281 12.44285 l -0.24,-0.0427 -0.24,-0.0426 z" id="path1172"/>
    <path style="fill:#000000;stroke-width:0.31999999" d="m 1559.12,258.04652 -3.12,-1.9665 v -34.70761 -34.70759 l 0.56,0.43779 0.56,0.43783 2.64,2.19584 2.64,2.19584 v 34.04553 34.04554 l -0.08,-0.005 -0.08,-0.005 -3.12,-1.96653 z" id="path1170"/>
    <path style="fill:#000000;stroke-width:0.31999999" d="m 50,255.93916 -3.12,-2.70458 v -32.78851 -32.78854 l 2.860218,2.4462 2.860217,2.44621 0.341299,0.41123 0.341296,0.41124 -0.08151,32.63568 -0.08152,32.63568 z" id="path1168"/>
    <path style="fill:#000000;stroke-width:0.31999999" d="m 745.84,255.98886 -2.96,-1.76438 v -12.79952 -12.79949 l 0.4,0.22646 0.4,0.22647 2.8,1.75401 2.8,1.75399 v 12.59839 12.5984 l -0.24,-0.015 -0.24,-0.015 -2.96,-1.76438 z" id="path1166"/>
    <path style="fill:#000000;stroke-width:0.31999999" d="m 1752.8,219.08207 v -36.49888 h 3.2 3.2 v 33.89827 33.89827 l -2.8,2.3633 -2.8,2.36326 -0.4,0.23735 -0.4,0.23731 z" id="path1164"/>
    <path style="fill:#000000;stroke-width:0.31999999" d="m 1649.12,217.82044 v -35.23725 h 3.2 3.2 v 32.29734 32.29735 l -1.84,1.73257 -1.84,1.73261 -1.36,1.2073 -1.36,1.20729 z" id="path1162"/>
    <path style="fill:#000000;stroke-width:0.31999999" d="m 723.92,250.67938 -3.12,-1.2967 v -29.99645 -29.99645 l 3.08877,-1.16787 3.08877,-1.16787 0.11276,0.11277 0.11277,0.11276 -0.0815,32.34826 -0.0815,32.34826 z" id="path1160"/>
    <path style="fill:#000000;stroke-width:0.31999999" d="m 1545.8476,249.3621 -2.9524,-1.97891 -0.01,-32.4 -0.01,-32.4 h 3.2 3.2 v 34.4 34.4 l -0.24,-0.0211 -0.24,-0.0211 -2.9524,-1.97891 z" id="path1158"/>
    <path style="fill:#000000;stroke-width:0.31999999" d="m 710.8,245.92373 -3.12,-1.58678 V 219.383 194.42901 l 3.2,-1.60582 3.2,-1.60582 v 28.16291 28.16291 l -0.08,-0.0163 -0.08,-0.0163 -3.12,-1.58675 z" id="path1156"/>
    <path style="fill:#000000;stroke-width:0.31999999" d="m 855.2,214.90319 v -32.32 h 3.2 3.2 v 32.32 32.32 h -3.2 -3.2 z" id="path1154"/>
    <path style="fill:#000000;stroke-width:0.31999999" d="m 868.64,214.90319 v -32.32 h 3.2 3.2 v 32.32 32.32 h -3.2 -3.2 z" id="path1152"/>
    <path style="fill:#000000;stroke-width:0.31999999" d="m 930.72,214.90319 v -32.32 h 3.2 3.2 v 32.32 32.32 h -3.2 -3.2 z" id="path1150"/>
    <path style="fill:#000000;stroke-width:0.31999999" d="m 944.16,214.90319 v -32.32 h 3.2 3.2 v 32.32 32.32 h -3.2 -3.2 z" id="path1148"/>
    <path style="fill:#000000;stroke-width:0.31999999" d="m 661.28,215.38889 v -31.59693 l 1.04,0.18368 1.04,0.18368 2.16,0.3648 2.16,0.36477 v 30.6656 30.66556 l -0.56,0.16461 -0.56,0.16461 -2.64,0.21827 -2.64,0.21831 z" id="path1146"/>
    <path style="fill:#000000;stroke-width:0.31999999" d="m 1766.24,213.64985 v -31.06666 h 3.2 3.2 l -0.01,29.2 -0.01,29.2 -2.9523,1.76 -2.9524,1.76 -0.24,0.10666 -0.24,0.10668 v -31.06668 z" id="path1144"/>
    <path style="fill:#000000;stroke-width:0.31999999" d="m 674.72,215.73717 v -27.00601 l 3.19654,1.32601 3.19655,1.32602 v 24.48 24.48 l -2.95555,1.20144 -2.95552,1.20141 h -0.24 -0.24 v -27.00602 z" id="path1142"/>
    <path style="fill:#000000;stroke-width:0.31999999" d="m 1428.88,237.73813 -3.12,-3.24505 v -25.95495 -25.95494 h 0.2642 0.2642 l 2.9377,3.17587 2.9376,3.17584 -0.082,26.02416 -0.082,26.02413 z" id="path1140"/>
    <path style="fill:#000000;stroke-width:0.31999999" d="m 1496.48,207.27279 v -24.6896 h 3.2 3.2 v 21.8744 21.8744 l -2.64,2.34614 -2.64,2.34612 -0.56,0.46908 -0.56,0.46906 z" id="path1138"/>
    <path style="fill:#000000;stroke-width:0.31999999" d="m 817.04,227.51234 -3.12,-2.39389 v -18.24652 -18.2465 l 0.4,0.23187 0.4,0.23187 2.8,1.92071 2.8,1.9207 v 18.50631 18.5063 l -0.08,-0.0186 -0.08,-0.0186 -3.12,-2.39392 z" id="path1136"/>
    <path style="fill:#000000;stroke-width:0.31999999" d="m 1788.32,205.48207 v -22.89888 h 3.2 3.2 v 20.29827 20.29827 l -2.8,2.3633 -2.8,2.36326 -0.4,0.23735 -0.4,0.23731 z" id="path1134"/>
    <path style="fill:#000000;stroke-width:0.31999999" d="m 238.01123,225.52844 -2.94876,-2.14525 -0.0112,-18.49888 -0.0112,-18.49888 0.4,0.23875 0.4,0.23875 2.8,2.04573 2.8,2.04573 v 18.3744 18.3744 l -0.24,-0.0147 -0.24,-0.0147 -2.94876,-2.14525 z" id="path1132"/>
    <path style="fill:#000000;stroke-width:0.31999999" d="m 181.6,208.59554 v -18.51043 l 3.15545,-1.67098 3.15546,-1.67094 h 0.20714 0.20715 l -0.0826,18.47386 -0.0826,18.47385 -3.28,1.70752 -3.28,1.70755 z" id="path1130"/>
    <path style="fill:#000000;stroke-width:0.31999999" d="m 495.52,202.70895 v -20.19424 l 0.4,0.14672 0.4,0.14669 2.8,1.05001 2.8,1.05002 v 18.99754 18.9975 h -3.2 -3.2 z" id="path1128"/>
    <path style="fill:#000000;stroke-width:0.31999999" d="m 224.64,219.73071 -3.2,-0.88118 -0.0826,-18.13319 -0.0826,-18.13315 h 1.63339 1.63339 l 1.72925,0.50272 1.72925,0.50269 v 18.53731 18.53728 l -0.08,-0.0256 -0.08,-0.0256 -3.2,-0.88118 z" id="path1126"/>
    <path style="fill:#000000;stroke-width:0.31999999" d="m 195.04,201.83247 v -18.5792 l 1.2,-0.33325 1.2,-0.33325 2,-0.003 2,-0.003 v 18.17434 18.1743 l -2.77467,0.57671 -2.77467,0.5767 -0.42533,0.1632 -0.42533,0.16323 v -18.5792 z" id="path1124"/>
    <path style="fill:#000000;stroke-width:0.31999999" d="m 1406.7418,217.44882 -3.0618,-2.57437 v -16.14563 -16.14563 h 3.2 3.2 v 18.72 18.72 h -0.1382 -0.1382 z" id="path1122"/>
    <path style="fill:#000000;stroke-width:0.31999999" d="m 1509.92,201.32988 v -18.74669 h 3.2 3.2 l -0.015,16.24 -0.015,16.24 -2.4184,1.92 -2.4185,1.92 -0.7668,0.58669 -0.7669,0.58669 v -18.74669 z" id="path1120"/>
    <path style="fill:#000000;stroke-width:0.31999999" d="m 208.16,200.66319 v -18.08 h 3.36 3.36 v 18.08 18.08 h -3.36 -3.36 z" id="path1118"/>
    <path style="fill:#000000;stroke-width:0.31999999" d="m 473.44,200.66319 v -18.08 h 3.2 3.2 v 18.08 18.08 h -3.2 -3.2 z" id="path1116"/>
    <path style="fill:#000000;stroke-width:0.31999999" d="m 794.72,215.42882 -2.72,-1.02614 -0.0831,-15.08807 -0.0831,-15.08809 3.12314,1.04701 3.1231,1.047 0.0831,15.09133 0.0831,15.09133 -0.40313,-0.024 -0.40314,-0.024 -2.72,-1.02614 z" id="path1114"/>
    <path style="fill:#000000;stroke-width:0.31999999" d="m 325.28,198.42319 v -15.84 h 3.36 3.36 v 15.84 15.84 h -3.36 -3.36 z" id="path1112"/>
    <path style="fill:#000000;stroke-width:0.31999999" d="m 338.72,198.42319 v -15.84 h 3.2 3.2 v 15.84 15.84 h -3.2 -3.2 z" id="path1110"/>
    <path style="fill:#000000;stroke-width:0.31999999" d="m 360.8,198.42319 v -15.84 h 3.2 3.2 v 15.84 15.84 h -3.2 -3.2 z" id="path1108"/>
    <path style="fill:#000000;stroke-width:0.31999999" d="m 603.68,198.42319 v -15.84 h 3.36 3.36 v 15.84 15.84 h -3.36 -3.36 z" id="path1106"/>
    <path style="fill:#000000;stroke-width:0.31999999" d="m 625.76,198.42319 v -15.84 h 3.36 3.36 v 15.84 15.84 h -3.36 -3.36 z" id="path1104"/>
    <path style="fill:#000000;stroke-width:0.31999999" d="m 647.84,198.42319 v -15.84 h 3.36 3.36 v 15.84 15.84 h -3.36 -3.36 z" id="path1102"/>
    <path style="fill:#000000;stroke-width:0.31999999" d="m 1682.08,198.42319 v -15.84 h 3.2 3.2 v 15.84 15.84 h -3.2 -3.2 z" id="path1100"/>
    <path style="fill:#000000;stroke-width:0.31999999" d="m 1695.2,198.42319 v -15.84 h 3.2 3.2 v 15.84 15.84 h -3.2 -3.2 z" id="path1098"/>
    <path style="fill:#000000;stroke-width:0.31999999" d="m 1708.64,198.42319 v -15.84 h 3.2 3.2 v 15.84 15.84 h -3.2 -3.2 z" id="path1096"/>
    <path style="fill:#000000;stroke-width:0.31999999" d="m 1730.72,198.42319 v -15.84 h 3.2 3.2 v 15.84 15.84 h -3.2 -3.2 z" id="path1094"/>
    <path style="fill:#000000;stroke-width:0.31999999" d="m 778.4,197.57583 v -15.08736 l 2.87658,0.18634 2.87657,0.18636 0.32343,0.19991 0.32342,0.19987 v 14.70112 14.70112 h -3.2 -3.2 z" id="path1092"/>
    <path style="fill:#000000;stroke-width:0.31999999" d="m 756.32,196.50319 v -13.92 h 3.2 3.2 v 13.92 13.92 h -3.2 -3.2 z" id="path1090"/>
    <path style="fill:#000000;stroke-width:0.31999999" d="m 742.88,196.34319 v -13.76 h 3.2 3.2 v 13.76 13.76 h -3.2 -3.2 z" id="path1088"/>
    <path style="fill:#000000;stroke-width:0.31999999" d="m 243.68,127.70319 v -31.84 h 3.2 3.2 v 31.84 31.84 h -3.2 -3.2 z" id="path1086"/>
    <path style="fill:#000000;stroke-width:0.31999999" d="M 20.32,110.06506 V 60.90693 l 2.48,-3.03467 2.48,-3.03467 0.708493,-0.8472 0.708489,-0.8472 0.01152,53.04 0.01152,53.04 h -3.2 -3.2 v -49.15813 z" id="path1084"/>
    <path style="fill:#000000;stroke-width:0.31999999" d="M 33.76,101.67831 V 44.13344 l 3.063504,-3.57513 3.063501,-3.57512 H 40.023504 40.16 v 61.12 61.12 h -3.2 -3.2 z" id="path1082"/>
    <path style="fill:#000000;stroke-width:0.31999999" d="m 95.84,96.98319 v -62.24 h 0.14253 0.14254 l 3.05746,3.74971 3.05747,3.7497 v 58.4903 58.49029 h -3.2 -3.2 z" id="path1080"/>
    <path style="fill:#000000;stroke-width:0.31999999" d="m 109.28,105.94319 v -53.28 h 0.1257 0.1257 l 3.0743,3.82994 3.0743,3.82993 v 49.45007 49.45006 h -3.2 -3.2 z" id="path1078"/>
    <path style="fill:#000000;stroke-width:0.31999999" d="m 150.88,89.62319 v -69.6 h 3.2 3.2 v 69.6 69.6 h -3.2 -3.2 z" id="path1076"/>
    <path style="fill:#000000;stroke-width:0.31999999" d="m 172.96,89.62319 v -69.6 h 3.2 3.2 v 69.6 69.6 h -3.2 -3.2 z" id="path1074"/>
    <path style="fill:#000000;stroke-width:0.31999999" d="m 186.08,144.98319 v -14.24 h 3.36 3.36 v 14.24 14.24 h -3.36 -3.36 z" id="path1072"/>
    <path style="fill:#000000;stroke-width:0.31999999" d="m 208.16,144.98319 v -14.24 h 3.36 3.36 v 14.24 14.24 h -3.36 -3.36 z" id="path1070"/>
    <path style="fill:#000000;stroke-width:0.31999999" d="m 221.6,144.98319 v -14.24 h 3.2 3.2 v 14.24 14.24 h -3.2 -3.2 z" id="path1068"/>
    <path style="fill:#000000;stroke-width:0.31999999" d="m 373.92,140.50319 v -18.72 h 1.23306 1.23305 l 1.96695,-0.20559 1.96694,-0.20558 v 18.92557 18.9256 h -3.2 -3.2 z" id="path1066"/>
    <path style="fill:#000000;stroke-width:0.31999999" d="m 429.28,140.66319 v -18.56 h 3.2 3.2 v 18.56 18.56 h -3.2 -3.2 z" id="path1064"/>
    <path style="fill:#000000;stroke-width:0.31999999" d="m 451.36,89.62319 v -69.6 h 3.2 3.2 v 69.6 69.6 h -3.2 -3.2 z" id="path1062"/>
    <path style="fill:#000000;stroke-width:0.31999999" d="m 464.48,89.62319 v -69.6 h 3.36 3.36 v 69.6 69.6 h -3.36 -3.36 z" id="path1060"/>
    <path style="fill:#000000;stroke-width:0.31999999" d="m 477.92,140.66319 v -18.56 h 3.2 3.2 v 18.56 18.56 h -3.2 -3.2 z" id="path1058"/>
    <path style="fill:#000000;stroke-width:0.31999999" d="m 577.12,89.62319 v -69.6 h 3.2 3.2 v 69.6 69.6 h -3.2 -3.2 z" id="path1056"/>
    <path style="fill:#000000;stroke-width:0.31999999" d="m 590.56,89.62319 v -69.6 h 3.2 3.2 v 69.6 69.6 h -3.2 -3.2 z" id="path1054"/>
    <path style="fill:#000000;stroke-width:0.31999999" d="m 603.68,144.98319 v -14.24 h 3.36 3.36 v 14.24 14.24 h -3.36 -3.36 z" id="path1052"/>
    <path style="fill:#000000;stroke-width:0.31999999" d="m 617.12,144.98319 v -14.24 h 3.2 3.2 v 14.24 14.24 h -3.2 -3.2 z" id="path1050"/>
    <path style="fill:#000000;stroke-width:0.31999999" d="m 639.2,140.66319 v -18.56 h 3.2 3.2 v 18.56 18.56 h -3.2 -3.2 z" id="path1048"/>
    <path style="fill:#000000;stroke-width:0.31999999" d="m 652.64,140.66319 v -18.56 h 3.2 3.2 v 18.56 18.56 h -3.2 -3.2 z" id="path1046"/>
    <path style="fill:#000000;stroke-width:0.31999999" d="m 666.08,140.66319 v -18.56 h 3.2 3.2 v 18.56 18.56 h -3.2 -3.2 z" id="path1044"/>
    <path style="fill:#000000;stroke-width:0.31999999" d="m 707.68,89.62319 v -69.6 h 3.2 3.2 v 69.6 69.6 h -3.2 -3.2 z" id="path1042"/>
    <path style="fill:#000000;stroke-width:0.31999999" d="m 720.8,89.62319 v -69.6 h 3.2 3.2 v 69.6 69.6 h -3.2 -3.2 z" id="path1040"/>
    <path style="fill:#000000;stroke-width:0.31999999" d="m 734.24,89.62319 v -69.6 h 3.2 3.2 v 69.6 69.6 h -3.2 -3.2 z" id="path1038"/>
    <path style="fill:#000000;stroke-width:0.31999999" d="m 911.76,158.98492 -2.8,-0.10666 v -19.65705 -19.65706 l 3.08,1.42952 3.07997,1.42952 h 0.12003 0.12 v 18.4 18.4 l -0.4,-0.0658 -0.4,-0.0658 z" id="path1036"/>
    <path style="fill:#000000;stroke-width:0.31999999" d="m 931.04,144.19954 v -15.02365 l 3.12,1.83901 3.12,1.83901 0.0836,13.18464 0.0835,13.18464 H 934.24355 931.04 Z" id="path1034"/>
    <path style="fill:#000000;stroke-width:0.31999999" d="m 985.76,89.62319 v -69.6 h 3.2 3.2 v 69.6 69.6 h -3.2 -3.2 z" id="path1032"/>
    <path style="fill:#000000;stroke-width:0.31999999" d="m 1007.84,89.62319 v -69.6 h 3.2 3.2 v 69.6 69.6 h -3.2 -3.2 z" id="path1030"/>
    <path style="fill:#000000;stroke-width:0.31999999" d="m 1078.88,89.62319 v -69.6 h 3.2 3.2 v 69.6 69.6 h -3.2 -3.2 z" id="path1028"/>
    <path style="fill:#000000;stroke-width:0.31999999" d="m 1092,89.62319 v -69.6 h 3.2 3.2 v 69.6 69.6 h -3.2 -3.2 z" id="path1026"/>
    <path style="fill:#000000;stroke-width:0.31999999" d="m 1173.28,89.62319 v -69.6 h 3.2 3.2 v 69.6 69.6 h -3.2 -3.2 z" id="path1024"/>
    <path style="fill:#000000;stroke-width:0.31999999" d="m 1187.04,89.62319 v -69.6 h 3.2 3.2 v 69.6 69.6 h -3.2 -3.2 z" id="path1022"/>
    <path style="fill:#000000;stroke-width:0.31999999" d="m 1286.56,126.42319 v -32.8 h 3.2 3.2 v 32.8 32.8 h -3.2 -3.2 z" id="path1020"/>
    <path style="fill:#000000;stroke-width:0.31999999" d="m 1299.68,135.22319 v -24 h 3.36 3.36 v 24 24 h -3.36 -3.36 z" id="path1018"/>
    <path style="fill:#000000;stroke-width:0.31999999" d="m 1321.76,135.22319 v -24 h 3.36 3.36 v 24 24 h -3.36 -3.36 z" id="path1016"/>
    <path style="fill:#000000;stroke-width:0.31999999" d="m 1335.2,135.22319 v -24 h 3.2 3.2 v 24 24 h -3.2 -3.2 z" id="path1014"/>
    <path style="fill:#000000;stroke-width:0.31999999" d="m 1348.64,89.62319 v -69.6 h 3.2 3.2 v 69.6 69.6 h -3.2 -3.2 z" id="path1012"/>
    <path style="fill:#000000;stroke-width:0.31999999" d="m 1403.68,89.62319 v -69.6 h 3.2 3.2 v 69.6 69.6 h -3.2 -3.2 z" id="path1010"/>
    <path style="fill:#000000;stroke-width:0.31999999" d="m 1416.8,89.62319 v -69.6 h 3.2 3.2 v 69.6 69.6 h -3.2 -3.2 z" id="path1008"/>
    <path style="fill:#000000;stroke-width:0.31999999" d="m 1509.92,140.66319 v -18.56 h 3.2 3.2 v 18.56 18.56 h -3.2 -3.2 z" id="path1006"/>
    <path style="fill:#000000;stroke-width:0.31999999" d="m 1542.56,89.62319 v -69.6 h 3.2 3.2 v 69.6 69.6 h -3.2 -3.2 z" id="path1004"/>
    <path style="fill:#000000;stroke-width:0.31999999" d="m 1556,89.62319 v -69.6 h 3.2 3.2 v 69.6 69.6 h -3.2 -3.2 z" id="path1002"/>
    <path style="fill:#000000;stroke-width:0.31999999" d="m 1578.08,89.62319 v -69.6 h 3.2 3.2 v 69.6 69.6 h -3.2 -3.2 z" id="path1000"/>
    <path style="fill:#000000;stroke-width:0.31999999" d="m 1591.2,126.42319 v -32.8 h 3.36 3.36 v 32.8 32.8 h -3.36 -3.36 z" id="path998"/>
    <path style="fill:#000000;stroke-width:0.31999999" d="m 1604.64,126.42319 v -32.8 h 3.2 3.2 v 32.8 32.8 h -3.2 -3.2 z" id="path996"/>
    <path style="fill:#000000;stroke-width:0.31999999" d="m 1626.72,126.42319 v -32.8 h 3.2 3.2 v 32.8 32.8 h -3.2 -3.2 z" id="path994"/>
    <path style="fill:#000000;stroke-width:0.31999999" d="m 1648.8,126.42319 v -32.8 h 3.2 3.2 v 32.8 32.8 h -3.2 -3.2 z" id="path992"/>
    <path style="fill:#000000;stroke-width:0.31999999" d="m 1682.08,89.62319 v -69.6 h 3.2 3.2 v 69.6 69.6 h -3.2 -3.2 z" id="path990"/>
    <path style="fill:#000000;stroke-width:0.31999999" d="m 1695.2,89.62319 v -69.6 h 3.2 3.2 v 69.6 69.6 h -3.2 -3.2 z" id="path988"/>
    <path style="fill:#000000;stroke-width:0.31999999" d="m 1774.88,89.62319 v -69.6 h 3.2 3.2 v 69.6 69.6 h -3.2 -3.2 z" id="path986"/>
    <path style="fill:#000000;stroke-width:0.31999999" d="m 1788.32,89.62319 v -69.6 h 3.2 3.2 v 69.6 69.6 h -3.2 -3.2 z" id="path984"/>
    <path style="fill:#000000;stroke-width:0.31999999" d="m 953.12,118.58319 v -40.32 h 3.2 3.2 v 39.65844 39.65842 l -0.56,0.16666 -0.56,0.16662 -2.17987,0.49495 -2.17984,0.49491 H 953.58013 953.12 Z" id="path982"/>
    <path style="fill:#000000;stroke-width:0.31999999" d="m 1133.28,138.10319 v -20.8 h 3.2 3.2 v 20.8 20.8 h -3.2 -3.2 z" id="path980"/>
    <path style="fill:#000000;stroke-width:0.31999999" d="m 1146.4,138.10319 v -20.8 h 3.2 3.2 v 20.8 20.8 h -3.2 -3.2 z" id="path978"/>
    <path style="fill:#000000;stroke-width:0.31999999" d="m 1159.84,138.10319 v -20.8 h 3.2 3.2 v 20.8 20.8 h -3.2 -3.2 z" id="path976"/>
    <path style="fill:#000000;stroke-width:0.31999999" d="m 1200.48,138.10319 v -20.8 h 3.2 3.2 v 20.8 20.8 h -3.2 -3.2 z" id="path974"/>
    <path style="fill:#000000;stroke-width:0.31999999" d="m 1222.56,138.10319 v -20.8 h 3.2 3.2 v 20.8 20.8 h -3.2 -3.2 z" id="path972"/>
    <path style="fill:#000000;stroke-width:0.31999999" d="m 898.24,156.85145 -2.88,-1.05722 -0.0822,-21.48474 -0.0823,-21.48471 3.36227,1.67216 3.36224,1.67216 v 20.88705 20.88704 l -0.4,-0.0173 -0.4,-0.0173 z" id="path970"/>
    <path style="fill:#000000;stroke-width:0.31999999" d="m 356.16,156.0062 -1.92,-0.62253 -1.2,-0.33258 -1.2,-0.33257 v -18.22765 -18.22768 h 0.13149 0.13145 l 3.06855,1.4835 3.06851,1.48351 v 17.71648 17.71651 l -0.08,-0.0173 -0.08,-0.0173 -1.92,-0.62256 z" id="path968"/>
    <path style="fill:#000000;stroke-width:0.31999999" d="m 396.00346,137.81621 0.004,-18.75302 3.19654,-1.32601 3.19654,-1.32601 v 19.44088 19.44087 l -3.2,0.63814 -3.2,0.63818 0.004,-18.75303 z" id="path966"/>
    <path style="fill:#000000;stroke-width:0.31999999" d="m 499.75747,136.93839 0.0825,-19.1552 3.28,-0.0912 3.28,-0.0912 v 17.24962 17.2496 l -2.82358,1.78999 -2.82359,1.78998 -0.53894,0.20682 -0.53895,0.20678 z" id="path964"/>
    <path style="fill:#000000;stroke-width:0.31999999" d="m 1499.613,153.99778 -3.107,-1.97459 -0.013,-18.48 -0.013,-18.48 h 0.1412 0.1412 l 3.0588,1.95716 3.0588,1.95717 v 18.52282 18.52285 l -0.08,-0.0253 -0.08,-0.0253 -3.107,-1.97462 z" id="path962"/>
    <path style="fill:#000000;stroke-width:0.31999999" d="m 257.12,128.52364 v -24.98045 h 0.45917 0.45917 l 0.90083,0.33905 0.90083,0.33906 1.20206,1.1679 1.20206,1.1679 0.63794,1.70505 0.63794,1.70505 v 18.23826 18.23827 l -0.46072,1.10266 -0.46072,1.10266 -0.89928,1.13324 -0.89928,1.13322 -1.84,1.29427 -1.84,1.29427 z" id="path960"/>
    <path style="fill:#000000;stroke-width:0.31999999" d="m 885.35354,150.18319 -3.27351,-2 v -20.56 l -3e-5,-20.56 h 0.16582 0.1658 l 3.1942,1.60292 3.19418,1.60291 v 20.95708 20.95709 h -0.0865 -0.0865 z" id="path958"/>
    <path style="fill:#000000;stroke-width:0.31999999" d="m 332.96,148.69609 -3.04,-1.17015 -0.0824,-19.75139 -0.0825,-19.75136 h 0.19162 0.19162 l 2.87884,1.48687 2.87888,1.48688 0.13498,0.35312 0.13498,0.35313 -0.083,19.0815 -0.083,19.08154 z" id="path956"/>
    <path style="fill:#000000;stroke-width:0.31999999" d="m 1267.6,146.71173 -3.12,-2.90294 V 112.156 80.50319 h 3.2 3.2 v 34.56 34.56 l -0.08,-0.004 -0.08,-0.004 -3.12,-2.90291 z" id="path954"/>
    <path style="fill:#000000;stroke-width:0.31999999" d="M 1370.72,82.64824 V 20.02319 h 3.2 3.2 l -0.014,58 -0.014,58 -3.1864,4.62506 -3.1863,4.62505 V 82.64824 Z" id="path952"/>
    <path style="fill:#000000;stroke-width:0.31999999" d="m 319.44051,142.63289 -3.11952,-1.4897 V 88.81614 36.4891 l 3.36,-1.67104 3.36,-1.67104 v 55.51808 55.51809 l -0.24,-0.0304 -0.24,-0.0304 -3.11949,-1.48966 z" id="path950"/>
    <path style="fill:#000000;stroke-width:0.31999999" d="m 1477.44,141.83442 -2.88,-1.69773 -0.083,-18.29674 -0.083,-18.29676 h 0.1446 0.1445 l 3.0581,1.79036 3.058,1.79035 v 18.20966 18.20963 l -0.24,-0.005 -0.24,-0.005 -2.88,-1.69773 z" id="path948"/>
    <path style="fill:#000000;stroke-width:0.31999999" d="M 522.08,89.53176 V 36.98319 h 0.1161 0.11612 l 3.08388,3.50269 3.0839,3.50269 v 45.4109 45.41089 l -2.75389,3.16643 -2.75392,3.1664 -0.44608,0.46858 -0.44611,0.46857 z" id="path946"/>
    <path style="fill:#000000;stroke-width:0.31999999" d="m 872.08,138.55589 -3.12,-2.41129 V 88.22366 40.30273 l 3.12,-2.14822 3.12,-2.14822 0.0819,26.24845 0.0819,26.24845 -0.0819,26.232 -0.0819,26.232 z" id="path944"/>
    <path style="fill:#000000;stroke-width:0.31999999" d="m 306.4,134.62825 -3.04,-2.15661 -0.0811,-43.71998 -0.0811,-43.71996 3.20113,-2.25653 3.20114,-2.25653 v 48.15227 48.15228 l -0.08,-0.0192 -0.08,-0.0192 -3.04,-2.15661 z" id="path942"/>
    <path style="fill:#000000;stroke-width:0.31999999" d="m 1464.24,134.70935 -3.28,-1.7642 V 114.88839 96.83161 l 3.12,1.64543 3.12,1.64544 0.2427,0.20905 0.2427,0.20904 -0.083,17.9665 -0.083,17.96649 z" id="path940"/>
    <path style="fill:#000000;stroke-width:0.31999999" d="m 55.84,118.74319 v -16.48 h 3.2 3.2 v 16.48 16.48 h -3.2 -3.2 z" id="path938"/>
    <path style="fill:#000000;stroke-width:0.31999999" d="m 68.96,118.74319 v -16.48 h 3.36 3.36 v 16.48 16.48 h -3.36 -3.36 z" id="path936"/>
    <path style="fill:#000000;stroke-width:0.31999999" d="m 82.4,118.74319 v -16.48 h 3.2 3.2 v 16.48 16.48 h -3.2 -3.2 z" id="path934"/>
    <path style="fill:#000000;stroke-width:0.31999999" d="m 292.9063,123.75666 -3.09369,-2.77347 -0.0263,-32.19297 -0.0263,-32.19297 3.12,-3.00703 3.12,-3.00703 0.0825,19.14473 0.0825,19.14473 -0.0825,18.82874 -0.0825,18.82874 z" id="path932"/>
    <path style="fill:#000000;stroke-width:0.31999999" d="M 535.2,89.14319 V 51.5552 l 3.2,3.18799 3.2,3.18799 v 31.21201 31.21201 l -3.2,3.18799 -3.2,3.188 z" id="path930"/>
    <path style="fill:#000000;stroke-width:0.31999999" d="m 849.84,123.96303 -2.96,-2.25857 V 88.95552 56.20658 l 3.2,-2.42339 3.2,-2.42339 v 37.4517 37.45169 l -0.24,-0.0208 -0.24,-0.0208 z" id="path928"/>
    <path style="fill:#000000;stroke-width:0.31999999" d="m 1441.84,123.64962 -2.96,-1.59229 V 89.19248 56.32763 l 3.12,-1.58636 3.12,-1.58636 0.24,-0.11252 0.24,-0.11253 v 36.18666 36.18667 l -0.4,-0.0307 -0.4,-0.0307 -2.96,-1.59232 z" id="path926"/>
    <path style="fill:#000000;stroke-width:0.31999999" d="m 1021.28,88.98319 v -32.8 h 3.2 3.2 v 32.8 32.8 h -3.2 -3.2 z" id="path924"/>
    <path style="fill:#000000;stroke-width:0.31999999" d="m 1043.36,88.98319 v -32.8 h 3.2 3.2 v 32.8 32.8 h -3.2 -3.2 z" id="path922"/>
    <path style="fill:#000000;stroke-width:0.31999999" d="m 1065.44,88.98319 v -32.8 h 3.2 3.2 v 32.8 32.8 h -3.2 -3.2 z" id="path920"/>
    <path style="fill:#000000;stroke-width:0.31999999" d="m 1733.8253,112.10122 -3.1347,-2.95803 0.095,-32.25219 0.095,-32.25219 3.12,2.64793 3.12,2.64793 v 32.56426 32.56426 l -0.08,-0.002 -0.08,-0.002 -3.1347,-2.95803 z" id="path918"/>
    <path style="fill:#000000;stroke-width:0.31999999" d="m 756.32,95.54319 v -15.36 h 3.2 3.2 v 15.36 15.36 h -3.2 -3.2 z" id="path916"/>
    <path style="fill:#000000;stroke-width:0.31999999" d="m 769.76,95.54319 v -15.36 h 3.2 3.2 v 15.36 15.36 h -3.2 -3.2 z" id="path914"/>
    <path style="fill:#000000;stroke-width:0.31999999" d="m 791.84,95.54319 v -15.36 h 3.2 3.2 v 15.36 15.36 h -3.2 -3.2 z" id="path912"/>
    <path style="fill:#000000;stroke-width:0.31999999" d="m 813.92,95.54319 v -15.36 h 3.2 3.2 v 15.36 15.36 h -3.2 -3.2 z" id="path910"/>
    <path style="fill:#000000;stroke-width:0.31999999" d="m 931.04,93.46319 v -15.2 h 3.2 3.2 v 15.2 15.2 h -3.2 -3.2 z" id="path908"/>
    <path style="fill:#000000;stroke-width:0.31999999" d="m 603.68,89.14319 v -13.12 h 3.36 3.36 v 13.12 13.12 h -3.36 -3.36 z" id="path906"/>
    <path style="fill:#000000;stroke-width:0.31999999" d="m 617.12,89.14319 v -13.12 h 3.2 3.2 v 13.12 13.12 h -3.2 -3.2 z" id="path904"/>
    <path style="fill:#000000;stroke-width:0.31999999" d="m 186.08,88.82319 v -13.12 h 3.36 3.36 v 13.12 13.12 h -3.36 -3.36 z" id="path902"/>
    <path style="fill:#000000;stroke-width:0.31999999" d="m 208.16,88.82319 v -13.12 h 3.36 3.36 v 13.12 13.12 h -3.36 -3.36 z" id="path900"/>
    <path style="fill:#000000;stroke-width:0.31999999" d="m 221.6,88.82319 v -13.12 h 3.2 3.2 v 13.12 13.12 h -3.2 -3.2 z" id="path898"/>
    <path style="fill:#000000;stroke-width:0.31999999" d="M 1752.8,70.00329 V 38.9721 l 2.64,-2.19584 2.64,-2.19584 0.56,-0.4378 0.56,-0.43779 -0.01,30.67918 -0.01,30.67918 -3.1914,2.98564 -3.1914,2.98565 V 70.00329 Z" id="path896"/>
    <path style="fill:#000000;stroke-width:0.31999999" d="m 1711.76,92.94878 -3.12,-2.55882 V 58.22769 26.06542 l 0.4,0.24149 0.4,0.24148 2.8,2.20198 2.8,2.20197 v 32.29543 32.29542 l -0.08,-0.0178 -0.08,-0.0178 -3.12,-2.55882 z" id="path894"/>
    <path style="fill:#000000;stroke-width:0.31999999" d="m 243.68,51.22319 v -31.2 h 3.2 3.2 v 31.2 31.2 h -3.2 -3.2 z" id="path892"/>
    <path style="fill:#000000;stroke-width:0.31999999" d="M 1460.96,63.25209 V 44.66902 l 3.1942,-1.60291 3.1942,-1.60292 h 0.1684 0.1684 l -0.083,18.42331 -0.083,18.42331 -3.28,1.76267 -3.28,1.76267 z" id="path890"/>
    <path style="fill:#000000;stroke-width:0.31999999" d="M 257.12,49.62491 V 23.85018 l 1.2,0.61939 1.2,0.61939 1.18117,1.22712 1.18118,1.22711 0.81569,1.76 0.81571,1.76 0.003,18.56 0.003,18.56 -0.90978,1.92 -0.90977,1.92 -1.31086,1.1819 -1.31086,1.1819 -0.97911,0.50632 -0.97912,0.50632 V 49.62491 Z" id="path888"/>
    <path style="fill:#000000;stroke-width:0.31999999" d="m 882.15779,52.93588 0.0822,-21.8073 3.1304,-2.1927 3.1304,-2.19269 h 0.1496 0.1496 v 21.8712 21.87119 l -3.19734,2.12881 -3.19735,2.1288 h -0.16486 -0.1649 z" id="path886"/>
    <path style="fill:#000000;stroke-width:0.31999999" d="m 1474.4774,56.13842 0.083,-18.58544 2.9842,-1.72489 2.9842,-1.7249 h 0.1358 0.1358 l -0.01,18.64 -0.01,18.64 -3.196,1.67034 -3.1961,1.67033 z" id="path884"/>
    <path style="fill:#000000;stroke-width:0.31999999" d="M 329.76,49.51001 V 30.05957 l 3.2,-1.31848 3.2,-1.31847 v 19.35789 19.3579 l -1.84,0.82093 -1.84,0.82093 -1.36,0.59009 -1.36,0.59009 z" id="path882"/>
    <path style="fill:#000000;stroke-width:0.31999999" d="m 895.27779,45.72655 0.0822,-21.97664 3.04,-1.36508 3.04,-1.36507 0.24,-0.0183 0.24,-0.0183 v 21.41115 21.41114 l -3.15331,1.94886 -3.15331,1.94885 h -0.2089 -0.2089 l 0.0822,-21.97664 z" id="path880"/>
    <path style="fill:#000000;stroke-width:0.31999999" d="m 1496.4804,44.26319 v -18.64 l 3.0135,-1.68 3.0135,-1.68 h 0.1861 0.1861 v 18.69148 18.69148 l -3.0478,1.62852 -3.0479,1.62852 h -0.1521 -0.1522 v -18.64 z" id="path878"/>
    <path style="fill:#000000;stroke-width:0.31999999" d="M 399.12,59.68372 396,58.09696 V 40.66008 23.22319 h 0.23376 0.23379 l 2.96621,1.17401 2.96624,1.17401 V 43.4372 61.30319 l -0.08,-0.0163 -0.08,-0.0164 -3.12,-1.58676 z" id="path876"/>
    <path style="fill:#000000;stroke-width:0.31999999" d="M 499.68,41.58895 V 22.19472 l 0.43853,0.16828 0.43853,0.16828 2.92147,2.13621 2.92147,2.13622 v 17.08974 17.08974 h -3.36 -3.36 z" id="path874"/>
    <path style="fill:#000000;stroke-width:0.31999999" d="m 55.84,40.34319 v -20.32 h 3.2 3.2 v 20.32 20.32 h -3.2 -3.2 z" id="path872"/>
    <path style="fill:#000000;stroke-width:0.31999999" d="m 82.4,40.34319 v -20.32 h 0.291066 0.291068 L 85.891066,23.66695 88.8,27.31071 v 16.67624 16.67624 h -3.2 -3.2 z" id="path870"/>
    <path style="fill:#000000;stroke-width:0.31999999" d="m 1133.28,40.34319 v -20.32 h 3.2 3.2 v 20.32 20.32 h -3.2 -3.2 z" id="path868"/>
    <path style="fill:#000000;stroke-width:0.31999999" d="m 1146.4,40.34319 v -20.32 h 3.2 3.2 v 20.32 20.32 h -3.2 -3.2 z" id="path866"/>
    <path style="fill:#000000;stroke-width:0.31999999" d="m 1159.84,40.34319 v -20.32 h 3.2 3.2 v 20.32 20.32 h -3.2 -3.2 z" id="path864"/>
    <path style="fill:#000000;stroke-width:0.31999999" d="m 1200.48,40.34319 v -20.32 h 3.2 3.2 v 20.32 20.32 h -3.2 -3.2 z" id="path862"/>
    <path style="fill:#000000;stroke-width:0.31999999" d="m 1222.56,40.34319 v -20.32 h 3.2 3.2 v 20.32 20.32 h -3.2 -3.2 z" id="path860"/>
    <path style="fill:#000000;stroke-width:0.31999999" d="M 908.96,40.21461 V 20.02319 h 3.2 3.2 l -0.003,18.16 -0.003,18.16 -2.15728,1.35166 -2.15725,1.35167 -1.04,0.67976 -1.04,0.67976 V 40.21461 Z" id="path858"/>
    <path style="fill:#000000;stroke-width:0.31999999" d="m 351.91731,40.81787 0.0827,-17.99586 3.12,-0.87224 3.12,-0.87224 V 38.8844 56.69127 l -2.8,0.90933 -2.8,0.90933 -0.40269,0.15189 -0.40269,0.1519 z" id="path856"/>
    <path style="fill:#000000;stroke-width:0.31999999" d="m 68.96,38.10319 v -18.08 h 3.36 3.36 v 18.08 18.08 h -3.36 -3.36 z" id="path854"/>
    <path style="fill:#000000;stroke-width:0.31999999" d="m 429.28,38.10319 v -18.08 h 3.2 3.2 v 18.08 18.08 h -3.2 -3.2 z" id="path852"/>
    <path style="fill:#000000;stroke-width:0.31999999" d="m 477.92,38.10319 v -18.08 h 3.2 3.2 v 18.08 18.08 h -3.2 -3.2 z" id="path850"/>
    <path style="fill:#000000;stroke-width:0.31999999" d="m 639.2,38.10319 v -18.08 h 3.2 3.2 v 18.08 18.08 h -3.2 -3.2 z" id="path848"/>
    <path style="fill:#000000;stroke-width:0.31999999" d="m 652.64,38.10319 v -18.08 h 3.2 3.2 v 18.08 18.08 h -3.2 -3.2 z" id="path846"/>
    <path style="fill:#000000;stroke-width:0.31999999" d="m 666.08,38.10319 v -18.08 h 3.2 3.2 v 18.08 18.08 h -3.2 -3.2 z" id="path844"/>
    <path style="fill:#000000;stroke-width:0.31999999" d="m 1509.92,38.10319 v -18.08 h 3.2 3.2 v 18.08 18.08 h -3.2 -3.2 z" id="path842"/>
    <path style="fill:#000000;stroke-width:0.31999999" d="m 373.92,37.94319 v -17.92 h 3.2 3.2 v 17.92 17.92 h -3.2 -3.2 z" id="path840"/>
    <path style="fill:#000000;stroke-width:0.31999999" d="m 756.32,35.86319 v -15.84 h 3.2 3.2 v 15.84 15.84 h -3.2 -3.2 z" id="path838"/>
    <path style="fill:#000000;stroke-width:0.31999999" d="m 769.76,35.86319 v -15.84 h 3.2 3.2 v 15.84 15.84 h -3.2 -3.2 z" id="path836"/>
    <path style="fill:#000000;stroke-width:0.31999999" d="m 791.84,35.86319 v -15.84 h 3.2 3.2 v 15.84 15.84 h -3.2 -3.2 z" id="path834"/>
    <path style="fill:#000000;stroke-width:0.31999999" d="m 813.92,35.86319 v -15.84 h 3.2 3.2 v 15.84 15.84 h -3.2 -3.2 z" id="path832"/>
    <path style="fill:#000000;stroke-width:0.31999999" d="M 953.12,35.85159 V 20 l 3.12,0.0916 3.12,0.0916 0.083,15.76 0.083,15.76 H 956.32301 953.12 Z" id="path830"/>
    <path style="fill:#000000;stroke-width:0.31999999" d="m 1299.68,35.86319 v -15.84 h 3.36 3.36 v 15.84 15.84 h -3.36 -3.36 z" id="path828"/>
    <path style="fill:#000000;stroke-width:0.31999999" d="m 1321.76,35.86319 v -15.84 h 3.36 3.36 v 15.84 15.84 h -3.36 -3.36 z" id="path826"/>
    <path style="fill:#000000;stroke-width:0.31999999" d="m 1335.2,35.86319 v -15.84 h 3.2 3.2 v 15.84 15.84 h -3.2 -3.2 z" id="path824"/>
    <path style="fill:#000000;stroke-width:0.31999999" d="M 931.04,34.72756 V 20.02319 h 3.2 3.2 v 12.40129 12.40128 l -3.2,2.30309 -3.2,2.30309 z" id="path822"/>
    <path style="fill:#000000;stroke-width:0.31999999" d="m 186.08,33.78319 v -13.76 h 3.36 3.36 v 13.76 13.76 h -3.36 -3.36 z" id="path820"/>
    <path style="fill:#000000;stroke-width:0.31999999" d="m 208.16,33.78319 v -13.76 h 3.36 3.36 v 13.76 13.76 h -3.36 -3.36 z" id="path818"/>
    <path style="fill:#000000;stroke-width:0.31999999" d="m 221.6,33.78319 v -13.76 h 3.2 3.2 v 13.76 13.76 h -3.2 -3.2 z" id="path816"/>
    <path style="fill:#000000;stroke-width:0.31999999" d="m 603.68,33.78319 v -13.76 h 3.36 3.36 v 13.76 13.76 h -3.36 -3.36 z" id="path814"/>
    <path style="fill:#000000;stroke-width:0.31999999" d="m 617.12,33.78319 v -13.76 h 3.2 3.2 v 13.76 13.76 h -3.2 -3.2 z" id="path819"/>
  </g>
</svg>