<?xml version="1.0" encoding="UTF-8"?>
<!DOCTYPE svg PUBLIC "-//W3C//DTD SVG 1.1//EN" "http://www.w3.org/Graphics/SVG/1.1/DTD/svg11.dtd">
<svg version="1.1" xmlns="http://www.w3.org/2000/svg" x="0" y="0" width="166" height="175" viewBox="0 0 166 175">
<style type="text/css">
	.st0{fill:none;stroke:#000000;stroke-width:2;}
	.st1{font-family:Liberation Sans,Arial;}
	.st2{font-size:10px;}
</style>
<g id="star">
	<polygon class="st0" points="19.1,124.4 83,13.7 146.9,124.4  "/>
	<polygon class="st0" points="19.1,50.5 83,161.2 146.9,50.5  "/>
</g>
<g id="text">
	<text transform="matrix(1 0 0 1 80 9)" class="st1 st2">6</text>
	<text transform="matrix(1 0 0 1 10 52)" class="st1 st2">5</text>
	<text transform="matrix(1 0 0 1 150 52)" class="st1 st2">3</text>
	<text transform="matrix(1 0 0 1 64 62)" class="st1 st2">7</text>
	<text transform="matrix(1 0 0 1 92 62)" class="st1 st2">11</text>
	<text transform="matrix(1 0 0 1 47 91)" class="st1 st2">9</text>
	<text transform="matrix(1 0 0 1 114 91)" class="st1 st2">1</text>
	<text transform="matrix(1 0 0 1 90 121)" class="st1 st2">12</text>
	<text transform="matrix(1 0 0 1 64 121)" class="st1 st2">2</text>
	<text transform="matrix(1 0 0 1 10 127)" class="st1 st2">4</text>
	<text transform="matrix(1 0 0 1 150 126)" class="st1 st2">8</text>
	<text transform="matrix(1 0 0 1 77 171)" class="st1 st2">10</text>
</g>
</svg>